<svg width="466" height="475" viewBox="0 0 466 475" fill="none" xmlns="http://www.w3.org/2000/svg">
<path d="M32.29 97.18L17.68 167.68C24.18 174.28 31.07 180.51 42.19 182.86L95.69 192.26L108.26 109.39L32.29 97.18Z" fill="#FAFAFA"/>
<path d="M29.24 92.83L14.63 163.33L39.14 178.51L92.64 187.91L108.44 108.36L29.24 92.83Z" fill="#F5F5F5"/>
<path d="M24.6 159.57L14.6 163.33C14.6 163.33 18.2 169.2 23.45 172.33C28.2359 175.344 33.5496 177.424 39.11 178.46C39.11 178.46 27.46 172.7 24.6 159.57Z" fill="#E0E0E0"/>
<path d="M21.1 107.96L57.67 96.62L55.34 88.92L18.17 99.73L21.1 107.96Z" fill="#EBEBEB"/>
<path d="M114.77 127.38L91.06 97.31L84.72 102.25L108.13 133.07L114.77 127.38Z" fill="#EBEBEB"/>
<path d="M94.68 131.78C94.68 131.92 81.15 129.4 64.52 126.15C47.89 122.9 34.43 120.15 34.46 120C34.49 119.85 47.99 122.38 64.62 125.63C81.25 128.88 94.71 131.64 94.68 131.78Z" fill="#E0E0E0"/>
<path d="M92.29 142.59C92.29 142.73 78.76 140.21 62.13 136.95C45.5 133.69 32 131 32.07 130.81C32.14 130.62 45.6 133.19 62.23 136.44C78.86 139.69 92.32 142.45 92.29 142.59Z" fill="#E0E0E0"/>
<path d="M90.74 152.28C90.74 152.42 77.21 149.9 60.59 146.65C43.97 143.4 30.5 140.65 30.52 140.5C30.54 140.35 44.05 142.88 60.69 146.14C77.33 149.4 90.77 152.14 90.74 152.28Z" fill="#E0E0E0"/>
<path d="M88.87 161.54C88.87 161.68 75.34 159.16 58.71 155.9C42.08 152.64 28.62 149.9 28.65 149.76C28.68 149.62 42.18 152.14 58.81 155.39C75.44 158.64 88.89 161.4 88.87 161.54Z" fill="#E0E0E0"/>
<path d="M374.63 64.76L355.72 110.85C349.45 112.12 343.08 113.03 335.79 110.08L301.46 94.77L326.33 42.36L374.63 64.76Z" fill="#FAFAFA"/>
<path d="M378.06 63.44L359.16 109.54L339.22 108.76L304.89 93.45L326.62 41.7L378.06 63.44Z" fill="#F5F5F5"/>
<path d="M354.89 103.52L359.16 109.52C356.451 110.691 353.531 111.294 350.58 111.29C346.667 111.162 342.813 110.297 339.22 108.74C339.22 108.74 348.17 110 354.89 103.52Z" fill="#E0E0E0"/>
<path d="M376.87 75.27L360.28 54.62L364.6 51.1L381.74 71.68L376.87 75.27Z" fill="#EBEBEB"/>
<path d="M315.63 50.17L340.86 42.09L342.59 47.38L317.23 56L315.63 50.17Z" fill="#EBEBEB"/>
<path d="M325.45 60.46C325.5 60.33 334.3 63.93 345.1 68.46C355.9 72.99 364.61 76.84 364.55 76.97C364.49 77.1 355.7 73.51 344.9 68.97C334.1 64.43 325.39 60.59 325.45 60.46Z" fill="#E0E0E0"/>
<path d="M322.64 67.59C322.69 67.45 331.49 71.05 342.29 75.59C353.09 80.13 361.79 83.97 361.74 84.1C361.69 84.23 352.88 80.64 342.09 76.1C331.3 71.56 322.58 67.72 322.64 67.59Z" fill="#E0E0E0"/>
<path d="M319.77 73.75C319.83 73.61 328.63 77.21 339.42 81.75C350.21 86.29 358.93 90.13 358.87 90.26C358.81 90.39 350.02 86.8 339.22 82.26C328.42 77.72 319.72 73.88 319.77 73.75Z" fill="#E0E0E0"/>
<path d="M317.27 79.78C317.32 79.65 326.12 83.25 336.92 87.78C347.72 92.31 356.42 96.16 356.37 96.29C356.32 96.42 347.51 92.83 336.71 88.29C325.91 83.75 317.21 79.91 317.27 79.78Z" fill="#E0E0E0"/>
<path d="M354.07 261.19C338.75 248.71 336.64 227.49 338.68 208.71C339.02 205.57 338.92 202.24 340.62 199.59C342.32 196.94 345.95 195.32 348.62 196.85C350.87 198.12 351.69 200.91 352.83 203.25C354.35 206.376 356.725 209.008 359.68 210.84C361.6 212.03 364.03 212.84 366.09 211.9C368.91 210.61 369.51 206.9 369.72 203.76C370.12 197.933 370.517 192.103 370.91 186.27C370.955 183.132 371.505 180.022 372.54 177.06C373.73 174.16 376.08 171.57 379.12 170.95C382.16 170.33 385.7 172.33 386.12 175.44C386.138 176.74 386.071 178.039 385.92 179.33C385.92 180.64 386.4 182.12 387.61 182.57C388.82 183.02 390.15 182.24 391.15 181.39C394.61 178.48 397.1 174.57 399.45 170.68C401.8 166.79 404.09 162.8 407.27 159.57C410.45 156.34 414.7 153.92 419.2 153.99C423.7 154.06 428.26 157.19 429.06 161.67C429.86 166.15 426.97 170.44 423.91 173.8C419.367 178.785 414.126 183.086 408.35 186.57C407.242 187.083 406.325 187.934 405.73 189C404.9 191 406.73 193.25 408.73 194.09C411.01 195.04 413.55 194.99 415.97 195.45C418.39 195.91 420.97 197.19 421.7 199.56C422.7 202.85 419.82 206.01 417.03 208C411.439 212.008 405.197 215.019 398.58 216.9C396.22 217.58 393.74 218.13 391.77 219.61C389.8 221.09 388.47 223.82 389.42 226.1C390.37 228.38 393.21 229.31 395.65 229.04C398.09 228.77 400.34 227.62 402.7 226.93C407.12 225.62 412.64 226.33 415.12 230.25C416.75 232.82 416.65 236.25 415.52 239.07C414.259 241.859 412.453 244.368 410.21 246.45C402.794 254.119 393.478 259.685 383.21 262.58C372.99 265.3 363.69 265.58 354.05 261.19" fill="#F5F5F5"/>
<path d="M352.79 275.13C354.301 266.465 356.646 257.965 359.79 249.75C363.673 239.725 368.13 229.932 373.14 220.42L377.04 212.91C378.32 210.45 379.59 208 380.99 205.69C383.672 201.259 386.596 196.979 389.75 192.87C392.75 188.93 395.75 185.3 398.52 181.87C401.29 178.44 404.02 175.41 406.59 172.69C410.617 168.386 414.981 164.411 419.64 160.8C421.29 159.52 422.64 158.57 423.49 157.94L424.49 157.22C424.602 157.135 424.723 157.061 424.85 157C424.747 157.098 424.636 157.188 424.52 157.27L423.52 158.03C422.65 158.69 421.36 159.67 419.74 160.98C415.146 164.648 410.837 168.659 406.85 172.98C404.3 175.7 401.64 178.8 398.85 182.18C396.06 185.56 393.1 189.18 390.13 193.18C387.001 197.283 384.097 201.553 381.43 205.97C380.05 208.27 378.79 210.69 377.5 213.16C376.21 215.63 374.93 218.16 373.61 220.66C368.611 230.156 364.147 239.925 360.24 249.92C357.083 258.099 354.703 266.556 353.13 275.18" fill="#E0E0E0"/>
<path d="M381.17 205.68C381.052 205.239 380.985 204.786 380.97 204.33C380.87 203.45 380.76 202.18 380.66 200.61C380.45 197.46 380.3 193.11 380.16 188.31C380.02 183.51 379.82 179.17 379.56 176.03C379.44 174.47 379.32 173.2 379.23 172.32C379.158 171.867 379.134 171.408 379.16 170.95C379.305 171.385 379.402 171.834 379.45 172.29C379.61 173.16 379.79 174.43 379.97 175.99C380.33 179.13 380.6 183.48 380.74 188.29C380.88 193.1 380.98 197.29 381.07 200.59C381.07 202.06 381.16 203.31 381.19 204.31C381.237 204.766 381.231 205.226 381.17 205.68V205.68Z" fill="#E0E0E0"/>
<path d="M421.92 201.15C421.384 201.229 420.841 201.256 420.3 201.23C419.3 201.23 417.76 201.23 415.91 201.33C412.2 201.46 407.08 201.81 401.45 202.44C395.82 203.07 390.74 203.89 387.09 204.57C385.26 204.9 383.79 205.21 382.77 205.42C382.247 205.561 381.711 205.648 381.17 205.68C381.67 205.468 382.189 205.304 382.72 205.19C383.72 204.92 385.19 204.55 387.01 204.19C390.65 203.4 395.73 202.53 401.38 201.88C406.201 201.323 411.047 201.009 415.9 200.94C417.76 200.94 419.27 200.94 420.31 201.02C420.85 201.014 421.388 201.057 421.92 201.15V201.15Z" fill="#E0E0E0"/>
<path d="M360.35 249.05C360.256 248.889 360.178 248.718 360.12 248.54L359.54 247.03C359.04 245.72 358.37 243.81 357.54 241.43C355.94 236.69 353.94 230.06 351.83 222.72C349.72 215.38 347.83 208.72 346.29 203.96C345.56 201.64 344.95 199.73 344.5 198.31C344.31 197.69 344.15 197.18 344.03 196.77C343.958 196.595 343.915 196.409 343.9 196.22C343.999 196.381 344.079 196.552 344.14 196.73L344.71 198.23C345.21 199.54 345.88 201.45 346.71 203.83C348.31 208.58 350.31 215.2 352.42 222.55C354.53 229.9 356.42 236.55 357.96 241.31C358.69 243.63 359.3 245.54 359.75 246.95L360.23 248.5C360.298 248.676 360.338 248.862 360.35 249.05Z" fill="#E0E0E0"/>
<path d="M415 235.79C414.825 235.872 414.64 235.932 414.45 235.97L412.86 236.38L407 237.81C402.06 239.02 395.25 240.76 387.73 242.7C380.21 244.64 373.37 246.33 368.4 247.43C365.91 247.99 363.9 248.43 362.5 248.68L360.89 248.98C360.7 249.026 360.505 249.05 360.31 249.05C360.485 248.968 360.67 248.908 360.86 248.87L362.45 248.46L368.31 247.03C373.25 245.83 380.06 244.08 387.59 242.14C395.12 240.2 402 238.51 407 237.4C409.49 236.85 411.5 236.4 412.9 236.16L414.52 235.86C414.677 235.82 414.838 235.797 415 235.79V235.79Z" fill="#E0E0E0"/>
<path d="M465.75 458.85C465.75 459 371.13 459.11 254.45 459.11C137.77 459.11 43.13 459 43.13 458.85C43.13 458.7 137.72 458.59 254.45 458.59C371.18 458.59 465.75 458.71 465.75 458.85Z" fill="#263238"/>
<path d="M142.77 54.79L166.9 128.35C176.48 131.02 186.24 133.14 197.9 129.35L252.82 109.48L220.17 25.48L142.77 54.79Z" fill="#E0E0E0"/>
<path d="M137.6 52.37L161.73 125.92L192.7 126.96L247.62 107.08L219.76 24.45L137.6 52.37Z" fill="#5579D9"/>
<path d="M169 117.08L161.72 125.92C161.72 125.92 168.22 129.47 174.81 129.62C180.885 129.883 186.955 128.994 192.7 127C192.7 127 178.7 127.79 169 117.08Z" fill="#5579D9"/>
<path opacity="0.3" d="M169 117.08C166.79 121.55 164.55 126.8 161.72 125.92C161.72 125.92 168.22 129.47 174.81 129.62C180.885 129.883 186.955 128.994 192.7 127C192.7 127 178.7 127.79 169 117.08Z" fill="black"/>
<path d="M138.12 70.83L166.14 40.69L159.85 34.76L130.98 64.73L138.12 70.83Z" fill="#E0E0E0"/>
<path d="M235.84 38.8L197.65 23.46L194.37 31.46L232.7 47.66L235.84 38.8Z" fill="#E0E0E0"/>
<path d="M219.47 53.66C219.47 53.79 205.57 58.66 188.33 64.53C171.09 70.4 157.06 75.05 157 74.91C156.94 74.77 170.89 69.91 188.14 64.04C205.39 58.17 219.42 53.52 219.47 53.66Z" fill="#263238"/>
<path d="M223 65C223 65.14 209.1 70 191.86 75.88C174.62 81.76 160.59 86.39 160.55 86.26C160.51 86.13 174.44 81.26 191.69 75.38C208.94 69.5 223 64.88 223 65Z" fill="#263238"/>
<path d="M226.77 74.88C226.77 75.01 212.88 79.88 195.63 85.75C178.38 91.62 164.37 96.27 164.32 96.13C164.27 95.99 178.22 91.13 195.47 85.26C212.72 79.39 226.73 74.74 226.77 74.88Z" fill="#263238"/>
<path d="M230 84.51C230 84.65 216.1 89.51 198.86 95.39C181.62 101.27 167.6 105.9 167.55 105.77C167.5 105.64 181.44 100.77 198.69 94.89C215.94 89.01 229.93 84.38 230 84.51Z" fill="#263238"/>
<path d="M267 295.19L262.16 340.19C262.16 340.19 252.73 325.94 246.35 332.29C240.27 338.35 229.53 382.54 229.53 382.54C229.53 382.54 229.39 396.95 237.05 400.76C261.62 413 289 390 289 390L285.09 261.2C274.904 269.774 268.423 281.952 267 295.19V295.19Z" fill="#5579D9"/>
<path d="M349.89 263.91L307.38 260.52C307.12 255.52 307.47 236.35 307.47 236.35C307.47 236.35 289.78 233.6 289.57 215.92C289.36 198.24 292.41 157.62 292.41 157.62C302.464 153.298 313.489 151.739 324.347 153.105C335.205 154.471 345.5 158.712 354.17 165.39L356.79 167.39L349.89 263.91Z" fill="#B78876"/>
<path d="M307.44 236.1C315.606 236.254 323.634 233.974 330.5 229.55C330.5 229.55 325.05 242.27 307.4 240.68L307.44 236.1Z" fill="#AA6550"/>
<path d="M354.62 185.72C354.92 185.59 366.77 182.13 366.38 194.22C365.99 206.31 353.94 203.43 353.93 203.08C353.92 202.73 354.62 185.72 354.62 185.72Z" fill="#B78876"/>
<path d="M357.76 198.62C357.82 198.62 357.97 198.77 358.32 198.95C358.813 199.181 359.376 199.21 359.89 199.03C361.19 198.6 362.33 196.61 362.46 194.43C362.513 193.406 362.343 192.382 361.96 191.43C361.861 191.048 361.669 190.696 361.402 190.405C361.136 190.114 360.802 189.892 360.43 189.76C360.19 189.686 359.932 189.7 359.701 189.799C359.47 189.898 359.282 190.075 359.17 190.3C359 190.63 359.06 190.87 359 190.89C358.94 190.91 358.75 190.68 358.86 190.18C358.943 189.886 359.118 189.626 359.36 189.44C359.701 189.204 360.12 189.108 360.53 189.17C361.03 189.291 361.49 189.539 361.866 189.889C362.243 190.239 362.523 190.68 362.68 191.17C363.154 192.234 363.366 193.397 363.3 194.56C363.14 196.99 361.82 199.23 360.06 199.68C359.732 199.766 359.389 199.777 359.056 199.711C358.724 199.645 358.41 199.505 358.14 199.3C357.78 198.91 357.72 198.64 357.76 198.62Z" fill="#AA6550"/>
<path d="M296.31 185C296.304 185.659 296.556 186.294 297.012 186.771C297.468 187.247 298.091 187.527 298.75 187.55C299.071 187.576 299.395 187.537 299.701 187.436C300.007 187.334 300.29 187.172 300.532 186.96C300.775 186.747 300.972 186.488 301.112 186.198C301.253 185.908 301.334 185.592 301.35 185.27C301.356 184.613 301.105 183.979 300.652 183.503C300.198 183.027 299.577 182.746 298.92 182.72C298.598 182.696 298.275 182.735 297.969 182.837C297.663 182.939 297.38 183.101 297.137 183.313C296.894 183.525 296.696 183.784 296.554 184.073C296.412 184.363 296.329 184.678 296.31 185V185Z" fill="#263238"/>
<path d="M295.76 182.5C296.07 182.83 297.99 181.41 300.7 181.42C303.41 181.43 305.41 182.79 305.7 182.42C305.84 182.27 305.52 181.67 304.7 181.04C303.525 180.228 302.128 179.799 300.7 179.81C299.285 179.805 297.905 180.25 296.76 181.08C295.89 181.76 295.61 182.35 295.76 182.5Z" fill="#263238"/>
<path d="M322.93 186C322.924 186.657 323.175 187.291 323.628 187.767C324.082 188.243 324.703 188.524 325.36 188.55C325.682 188.574 326.005 188.535 326.311 188.433C326.617 188.331 326.9 188.169 327.143 187.957C327.386 187.745 327.584 187.486 327.726 187.197C327.868 186.907 327.951 186.592 327.97 186.27C327.973 185.612 327.72 184.978 327.265 184.502C326.81 184.026 326.188 183.746 325.53 183.72C325.209 183.696 324.886 183.735 324.581 183.837C324.275 183.939 323.993 184.101 323.751 184.314C323.509 184.526 323.311 184.784 323.17 185.074C323.029 185.364 322.948 185.678 322.93 186V186Z" fill="#263238"/>
<path d="M322.47 183C322.79 183.33 324.7 181.91 327.42 181.92C330.14 181.93 332.13 183.29 332.42 182.92C332.57 182.78 332.25 182.18 331.42 181.55C330.244 180.738 328.849 180.305 327.42 180.31C326.006 180.308 324.627 180.753 323.48 181.58C322.61 182.27 322.32 182.86 322.47 183Z" fill="#263238"/>
<path d="M312.61 203.16C312.61 203.01 310.93 202.72 308.2 202.37C307.5 202.3 306.85 202.16 306.73 201.68C306.675 200.966 306.835 200.252 307.19 199.63C307.857 197.95 308.54 196.187 309.24 194.34C312.1 186.82 314.16 180.63 313.85 180.52C313.54 180.41 310.99 186.42 308.14 193.94C307.46 195.79 306.8 197.56 306.14 199.26C305.697 200.094 305.569 201.06 305.78 201.98C305.88 202.224 306.035 202.441 306.232 202.614C306.43 202.788 306.666 202.913 306.92 202.98C307.304 203.089 307.701 203.146 308.1 203.15C310.89 203.31 312.6 203.32 312.61 203.16Z" fill="#263238"/>
<path d="M321.77 172.36C322.04 173.1 324.77 172.75 327.94 173.13C331.11 173.51 333.71 174.38 334.13 173.72C334.32 173.4 333.87 172.72 332.83 171.99C331.439 171.123 329.87 170.583 328.24 170.41C326.61 170.237 324.962 170.435 323.42 170.99C322.25 171.43 321.66 172 321.77 172.36Z" fill="#263238"/>
<path d="M296.76 174.64C297.24 175.25 299.11 174.64 301.36 174.58C303.61 174.52 305.52 175 305.96 174.35C306.15 174.04 305.85 173.42 305.02 172.84C303.903 172.136 302.601 171.78 301.281 171.82C299.962 171.859 298.683 172.291 297.61 173.06C296.81 173.7 296.55 174.33 296.76 174.64Z" fill="#263238"/>
<path d="M283.8 146.46C283.675 145.362 283.83 144.251 284.252 143.229C284.673 142.208 285.347 141.31 286.21 140.62C287.101 139.972 288.194 139.661 289.293 139.744C290.391 139.826 291.425 140.296 292.21 141.07C292.044 140.332 292.034 139.567 292.183 138.824C292.331 138.082 292.634 137.379 293.072 136.762C293.509 136.144 294.072 135.626 294.723 135.239C295.373 134.853 296.098 134.608 296.85 134.52C299.74 134.34 302.2 136.52 304.98 137.28C307.76 138.04 310.62 137.38 313.24 136.33C315.86 135.28 318.3 133.82 320.95 132.85C326.549 130.805 332.729 131.053 338.146 133.54C343.564 136.027 347.78 140.551 349.88 146.13C353.75 144.92 358.14 146.89 360.53 150.13C362.92 153.37 363.53 157.71 363.05 161.73C362.678 164.442 362.007 167.105 361.05 169.67C361.05 169.9 361.05 170.12 361.05 170.35C360.86 180.07 359.76 191.49 355.61 191.56C348.38 191.67 350.11 178.04 350.11 178.04C341.23 174.62 344.54 161.32 342.32 159.3C340.1 157.28 335.46 152.6 316.88 162.09C309.66 165.78 300.07 165.67 294.83 164.48L294.37 164.38H294.26C294.209 164.363 294.159 164.343 294.11 164.32C292.426 163.906 290.816 163.231 289.34 162.32C287.602 161.318 286.228 159.787 285.42 157.95C285.031 157.031 284.918 156.018 285.095 155.036C285.273 154.054 285.733 153.145 286.42 152.42C284.983 150.732 284.073 148.66 283.8 146.46Z" fill="#263238"/>
<path d="M384.67 374.89L386 400L389 436H275.37L280.31 382.74L270.63 298.59C271.47 268.85 282.89 256.49 306.25 253.65L304.41 253.88C307.63 253.5 304.41 253.88 306.25 253.65C321.001 258.31 336.829 258.31 351.58 253.65V253.65C358.58 253.95 364.39 256.1 370.35 257.25C389.12 260.84 404.57 275.34 408.35 287.97C411.44 298.36 433.79 388.48 433.79 388.48H389.3L384.67 374.89Z" fill="#5579D9"/>
<path d="M310.3 211.52C310.679 212.619 311.211 213.659 311.88 214.61C312.218 215.084 312.654 215.481 313.157 215.774C313.661 216.067 314.221 216.25 314.8 216.31C315.419 216.308 316.027 216.151 316.57 215.854C317.114 215.557 317.574 215.13 317.91 214.61C318.57 213.553 318.874 212.313 318.78 211.07C318.78 209.95 318.22 208.62 317.11 208.49C316.643 208.472 316.179 208.572 315.76 208.78L309.93 211.15" fill="#AA6550"/>
<path d="M312.63 216.32C313.685 216.391 314.743 216.262 315.75 215.94C316.769 215.539 317.605 214.777 318.1 213.8C318.379 213.206 318.529 212.559 318.541 211.902C318.553 211.246 318.427 210.594 318.17 209.99C318.04 209.678 317.872 209.382 317.67 209.11C317.43 208.87 317.48 208.88 317.23 208.92C316.91 209.025 316.596 209.148 316.29 209.29L315.29 209.68C314.04 210.18 312.91 210.62 311.96 210.98C310.05 211.69 308.84 212.07 308.78 211.98C308.72 211.89 309.83 211.23 311.67 210.34C312.59 209.9 313.67 209.34 314.92 208.83L315.86 208.41C316.209 208.245 316.566 208.098 316.93 207.97C317.209 207.876 317.511 207.876 317.79 207.97C318.047 208.076 318.269 208.253 318.43 208.48C318.699 208.815 318.921 209.185 319.09 209.58C319.408 210.323 319.556 211.128 319.525 211.935C319.494 212.743 319.284 213.533 318.91 214.25C318.595 214.828 318.167 215.338 317.651 215.748C317.136 216.158 316.544 216.462 315.91 216.64C315.092 216.908 314.216 216.942 313.38 216.74C312.88 216.58 312.61 216.38 312.63 216.32Z" fill="#263238"/>
<path d="M270.44 369.87L243.68 287.71L241.26 273.92C241.26 273.92 233.98 243.16 233.65 240.12C233.28 236.6 231.49 235.94 230.21 236.12C228.21 236.48 227.04 239.12 227.27 242.12C227.35 243.12 229.27 259.62 229.27 259.62C228.144 258.169 226.918 256.799 225.6 255.52C222.83 252.7 216.92 251.52 211.07 252.37C205.22 253.22 203.65 253.94 203.87 256.23C203.93 256.66 204.087 257.071 204.327 257.433C204.568 257.795 204.887 258.098 205.26 258.32C206.434 259.11 207.859 259.438 209.26 259.24C218.65 258.05 221.72 262.81 221.72 262.81L222.04 264.61C222.04 264.61 215.88 261.15 211.52 263.36C210.874 263.687 210.297 264.135 209.82 264.68C208.538 264.824 207.317 265.301 206.276 266.063C205.235 266.825 204.412 267.846 203.887 269.024C203.363 270.203 203.155 271.498 203.286 272.781C203.416 274.064 203.879 275.291 204.63 276.34C205.35 277.34 206.63 278.24 207.78 277.87C208.391 277.609 208.927 277.2 209.34 276.68C209.575 276.42 209.832 276.183 210.11 275.97L211.7 280.9C211.7 280.9 215.88 291.79 217.16 296.73L230.16 379.46C230.59 382.185 231.558 384.796 233.008 387.143C234.457 389.49 236.36 391.524 238.604 393.128C240.848 394.732 243.389 395.873 246.079 396.484C248.769 397.096 251.553 397.166 254.27 396.69V396.69C257.193 396.176 259.971 395.041 262.418 393.362C264.865 391.683 266.924 389.5 268.456 386.959C269.989 384.417 270.958 381.577 271.301 378.629C271.643 375.682 271.349 372.695 270.44 369.87V369.87Z" fill="#B78876"/>
<path d="M240.85 286.87C239.18 287.53 237.27 286.45 236.17 285.03C235.07 283.61 234.5 281.84 233.51 280.34C230.51 275.84 224.37 274.21 221.63 269.58C221.24 268.93 220.97 268.02 221.52 267.51C222.07 267 222.85 267.28 223.52 267.51L239.96 274.42" fill="#B78876"/>
<path d="M239.93 274.46C239.405 274.08 238.833 273.767 238.23 273.53C237.11 272.99 235.47 272.25 233.44 271.34L226.3 268.22L224.22 267.33C223.437 266.84 222.492 266.678 221.59 266.88C221.315 267.003 221.084 267.206 220.926 267.463C220.769 267.72 220.694 268.019 220.71 268.32C220.736 268.812 220.877 269.291 221.12 269.72C221.568 270.476 222.098 271.18 222.7 271.82C225.15 274.38 228.11 275.82 230.33 277.65C231.404 278.466 232.348 279.441 233.13 280.54C233.84 281.54 234.33 282.69 234.89 283.67C235.264 284.506 235.815 285.25 236.506 285.851C237.197 286.452 238.01 286.895 238.89 287.15C240.21 287.4 240.89 286.89 240.83 286.87C240.216 286.951 239.592 286.917 238.99 286.77C238.203 286.469 237.487 286.008 236.888 285.416C236.289 284.824 235.82 284.113 235.51 283.33C235 282.33 234.51 281.22 233.81 280.07C233.009 278.879 232.027 277.819 230.9 276.93C228.62 275 225.68 273.5 223.43 271.12C222.881 270.546 222.398 269.912 221.99 269.23C221.62 268.59 221.59 267.9 221.99 267.79C222.39 267.68 223.15 267.92 223.85 268.22L225.93 269.08L233.16 272.01C235.23 272.82 236.91 273.47 238.07 273.9C238.661 274.172 239.287 274.361 239.93 274.46V274.46Z" fill="#AA6550"/>
<path d="M222.26 264.75C222.035 263.632 221.549 262.583 220.84 261.69C220.028 260.782 218.944 260.161 217.75 259.92C216.261 259.632 214.736 259.578 213.23 259.76C211.674 259.948 210.102 259.979 208.54 259.85C207.227 259.725 205.968 259.26 204.89 258.5C204.527 258.226 204.232 257.872 204.025 257.467C203.819 257.062 203.708 256.615 203.7 256.16C203.678 255.835 203.755 255.511 203.92 255.23C203.98 255.23 203.92 255.57 203.92 256.15C203.965 256.552 204.097 256.94 204.308 257.285C204.519 257.631 204.803 257.926 205.14 258.15C206.172 258.804 207.351 259.189 208.57 259.27C210.095 259.361 211.625 259.311 213.14 259.12C214.716 258.935 216.311 259.016 217.86 259.36C219.16 259.657 220.322 260.382 221.16 261.42C221.706 262.116 222.071 262.938 222.22 263.81C222.313 264.115 222.327 264.438 222.26 264.75V264.75Z" fill="#AA6550"/>
<path d="M227.2 241C227.426 242.077 227.56 243.171 227.6 244.27C227.81 246.52 228.07 249.2 228.36 252.16C228.65 255.12 228.99 257.79 229.24 260.04C229.433 261.123 229.53 262.22 229.53 263.32C229.159 262.282 228.908 261.205 228.78 260.11C228.43 258.11 228.03 255.32 227.71 252.23C227.39 249.14 227.2 246.33 227.13 244.3C227.03 243.201 227.054 242.094 227.2 241V241Z" fill="#AA6550"/>
<path d="M218.94 268.86C218.597 268.809 218.262 268.719 217.94 268.59C217.53 268.426 217.089 268.354 216.648 268.38C216.207 268.406 215.778 268.529 215.39 268.74C215.156 268.901 214.967 269.12 214.845 269.376C214.722 269.633 214.668 269.917 214.69 270.2C214.726 270.917 214.853 271.626 215.07 272.31C215.357 273.167 215.318 274.1 214.96 274.93C214.717 275.362 214.376 275.73 213.964 276.004C213.553 276.279 213.082 276.452 212.59 276.51C212.107 276.559 211.618 276.511 211.154 276.366C210.69 276.222 210.26 275.985 209.89 275.67C209.203 275.108 208.695 274.357 208.43 273.51C208.094 272.13 207.963 270.708 208.04 269.29C208.057 268.332 208.243 267.384 208.59 266.49C208.701 266.15 208.901 265.846 209.17 265.61C209.17 265.61 209.01 265.95 208.83 266.61C208.596 267.5 208.488 268.419 208.51 269.34C208.498 270.69 208.666 272.035 209.01 273.34C209.234 274.088 209.698 274.741 210.331 275.198C210.964 275.656 211.73 275.892 212.51 275.87C212.897 275.823 213.267 275.687 213.593 275.474C213.919 275.261 214.192 274.975 214.39 274.64C214.681 273.948 214.712 273.174 214.48 272.46C214.272 271.721 214.161 270.958 214.15 270.19C214.143 269.824 214.231 269.463 214.407 269.142C214.582 268.821 214.838 268.552 215.15 268.36C215.594 268.133 216.086 268.014 216.585 268.014C217.084 268.014 217.576 268.133 218.02 268.36C218.65 268.62 219 268.82 218.94 268.86Z" fill="#AA6550"/>
<path d="M210.12 275.14C210.12 275.14 210.28 275.47 210.12 276.08C209.997 276.508 209.777 276.903 209.477 277.232C209.177 277.562 208.805 277.818 208.39 277.98C207.758 278.192 207.082 278.237 206.428 278.109C205.774 277.981 205.165 277.685 204.66 277.25C203.461 276.181 202.72 274.691 202.59 273.09C202.418 271.514 202.744 269.923 203.52 268.54C204.159 267.424 205.089 266.501 206.21 265.87C206.947 265.442 207.758 265.153 208.6 265.02C208.906 264.947 209.224 264.947 209.53 265.02C208.451 265.293 207.415 265.714 206.45 266.27C205.33 266.978 204.434 267.988 203.866 269.185C203.298 270.382 203.081 271.715 203.24 273.03C203.354 274.468 203.999 275.812 205.05 276.8C205.474 277.183 205.988 277.452 206.544 277.583C207.1 277.715 207.68 277.703 208.23 277.55C208.599 277.425 208.936 277.223 209.221 276.958C209.505 276.692 209.73 276.369 209.88 276.01C210.09 275.48 210.06 275.14 210.12 275.14Z" fill="#AA6550"/>
<path d="M222.65 284.93C223.145 284.719 223.694 284.666 224.22 284.78C225.594 284.923 226.88 285.525 227.87 286.49L227.34 286.71C227.331 285.961 227.374 285.213 227.47 284.47C227.96 280.13 230 277.12 230.12 277.23C230.24 277.34 228.59 280.37 228.12 284.55C228.033 285.267 227.983 285.988 227.97 286.71V287.46L227.45 286.93C226.554 286.038 225.418 285.427 224.18 285.17C223.23 285 222.65 285 222.65 284.93Z" fill="#AA6550"/>
<path d="M219.32 256.93C219.48 256.99 218.97 258.24 217.59 259.01C216.21 259.78 214.89 259.6 214.92 259.43C214.95 259.26 216.08 259.13 217.27 258.43C218.46 257.73 219.15 256.83 219.32 256.93Z" fill="#AA6550"/>
<path d="M291.64 256.92C291.64 256.92 291.27 257.32 290.64 258.09C289.642 259.175 288.855 260.436 288.32 261.81C288.161 262.277 288.073 262.766 288.06 263.26C288.061 263.787 288.192 264.305 288.44 264.77C289.122 265.796 290.14 266.553 291.32 266.91C294.279 267.838 297.37 268.274 300.47 268.2C302.19 268.2 304.05 268.3 305.95 268.41L308.86 268.75C309.86 268.86 310.86 269.13 311.86 269.31C316.201 270.196 320.296 272.019 323.86 274.65C325.802 276.099 327.492 277.86 328.86 279.86C329.204 280.384 329.521 280.924 329.81 281.48C330.1 282.07 330.3 282.64 330.54 283.22C330.986 284.403 331.321 285.625 331.54 286.87C332.546 292.111 331.716 297.539 329.19 302.24C326.58 306.906 322.387 310.484 317.37 312.33C315.013 313.215 312.527 313.708 310.01 313.79C307.61 313.803 305.218 313.515 302.89 312.93C300.742 312.377 298.556 311.986 296.35 311.76C294.311 311.563 292.258 311.926 290.41 312.81C288.712 313.722 287.202 314.947 285.96 316.42C284.71 317.82 283.65 319.29 282.6 320.68C280.53 323.47 278.33 325.93 275.77 327.22C274.597 327.849 273.291 328.191 271.96 328.22C270.848 328.233 269.744 328.029 268.71 327.62C267.886 327.292 267.13 326.814 266.48 326.21C266.013 325.756 265.634 325.221 265.36 324.63C265.126 324.151 265.006 323.623 265.01 323.09C265.08 323.09 265.1 323.64 265.55 324.54C265.847 325.081 266.232 325.567 266.69 325.98C267.329 326.526 268.06 326.953 268.85 327.24C269.931 327.639 271.085 327.799 272.233 327.707C273.382 327.616 274.496 327.275 275.5 326.71C277.9 325.44 279.99 323.05 282.01 320.25C283.01 318.85 284.09 317.35 285.36 315.89C286.644 314.309 288.219 312.988 290 312C291.981 311.027 294.191 310.612 296.39 310.8C298.645 311.019 300.881 311.403 303.08 311.95C305.33 312.506 307.642 312.779 309.96 312.76C312.354 312.662 314.717 312.183 316.96 311.34C321.741 309.565 325.736 306.148 328.23 301.7C330.64 297.209 331.438 292.028 330.49 287.02C330.259 285.83 329.925 284.662 329.49 283.53C329.25 282.97 329.05 282.39 328.8 281.89C328.538 281.366 328.244 280.858 327.92 280.37C326.629 278.458 325.035 276.769 323.2 275.37C319.751 272.799 315.787 271.005 311.58 270.11C310.58 269.92 309.58 269.65 308.65 269.54L305.79 269.17C303.91 269.04 302.11 268.96 300.36 268.9C297.185 268.927 294.029 268.424 291.02 267.41C289.767 266.975 288.702 266.125 288 265C287.725 264.459 287.59 263.857 287.61 263.25C287.637 262.713 287.749 262.183 287.94 261.68C288.525 260.275 289.393 259.005 290.49 257.95C290.823 257.555 291.21 257.208 291.64 256.92Z" fill="#FAFAFA"/>
<path d="M367.71 323.6C367.436 322.879 367.274 322.12 367.23 321.35C367.007 319.252 367.146 317.131 367.64 315.08C368.373 312.024 369.695 309.141 371.53 306.59C373.764 303.46 376.62 300.825 379.92 298.85C383.239 296.945 386.846 295.594 390.6 294.85C393.643 294.222 396.743 293.903 399.85 293.9C401.934 293.877 404.018 293.981 406.09 294.21C406.855 294.241 407.612 294.376 408.34 294.61C408.34 294.79 405.09 294.43 399.86 294.61C396.811 294.723 393.779 295.111 390.8 295.77C387.164 296.56 383.673 297.91 380.45 299.77C377.268 301.674 374.497 304.193 372.3 307.18C370.497 309.613 369.161 312.359 368.36 315.28C367.82 317.253 367.574 319.295 367.63 321.34C367.713 322.09 367.74 322.846 367.71 323.6V323.6Z" fill="#FAFAFA"/>
<path d="M422.35 341C422.045 341.641 421.648 342.234 421.17 342.76C419.98 344.268 418.639 345.652 417.17 346.89C414.98 348.746 412.556 350.306 409.96 351.53C403.556 354.61 396.313 355.485 389.36 354.02C386.545 353.448 383.818 352.506 381.25 351.22C379.521 350.371 377.883 349.349 376.36 348.17C375.77 347.776 375.243 347.294 374.8 346.74C374.92 346.58 377.2 348.57 381.57 350.56C387.24 353.192 393.532 354.19 399.739 353.441C405.945 352.692 411.819 350.226 416.7 346.32C420.45 343.33 422.19 340.85 422.35 341Z" fill="#FAFAFA"/>
<path d="M372.12 337.78C371.832 337.94 371.526 338.067 371.21 338.16C370.353 338.508 369.574 339.025 368.92 339.68C367.917 340.746 367.135 342 366.62 343.37C365.922 345.198 365.381 347.081 365 349C364.589 351.361 364.048 353.698 363.38 356C362.959 357.31 362.378 358.563 361.65 359.73C360.844 360.956 359.86 362.055 358.73 362.99C356.291 364.931 353.48 366.35 350.47 367.16C347.39 368.08 344.13 368.58 340.85 369.22C334.678 370.236 328.828 372.674 323.76 376.34C321.591 377.966 319.671 379.9 318.06 382.08C316.688 384.004 315.594 386.111 314.81 388.34C313.655 391.581 313.292 395.05 313.75 398.46C314.11 400.87 314.66 402.13 314.55 402.17C314.373 401.889 314.232 401.586 314.13 401.27C313.975 400.899 313.845 400.518 313.74 400.13C313.579 399.605 313.448 399.071 313.35 398.53C312.724 395.048 312.985 391.464 314.11 388.11C314.871 385.789 315.962 383.59 317.35 381.58C318.986 379.306 320.947 377.284 323.17 375.58C328.331 371.773 334.322 369.244 340.65 368.2C343.96 367.55 347.19 367.06 350.18 366.2C353.066 365.442 355.767 364.105 358.12 362.27C359.184 361.412 360.114 360.401 360.88 359.27C361.58 358.176 362.144 357 362.56 355.77C363.253 353.491 363.828 351.178 364.28 348.84C364.704 346.883 365.303 344.969 366.07 343.12C366.656 341.705 367.532 340.427 368.64 339.37C369.348 338.706 370.2 338.217 371.13 337.94C371.449 337.831 371.783 337.777 372.12 337.78Z" fill="#FAFAFA"/>
<path d="M345.33 333.61C345.675 334.238 345.854 334.943 345.85 335.66C345.949 337.63 345.386 339.577 344.25 341.19C343.484 342.328 342.455 343.265 341.25 343.92C340.571 344.291 339.839 344.557 339.08 344.71C338.276 344.859 337.454 344.893 336.64 344.81C334.891 344.62 333.23 343.948 331.84 342.87C330.313 341.717 329.221 340.082 328.74 338.23C328.434 337.024 328.417 335.763 328.69 334.55C328.985 333.398 329.532 332.326 330.29 331.41C330.938 330.542 331.672 329.741 332.48 329.02C332.87 328.661 333.295 328.343 333.75 328.07C334.219 327.758 334.759 327.568 335.32 327.52L335.45 328.41L334.96 328.53L334.71 327.67C336.529 327.154 338.468 327.259 340.22 327.97C341.557 328.482 342.75 329.309 343.7 330.38C344.308 331.055 344.789 331.834 345.12 332.68C345.33 333.27 345.38 333.6 345.34 333.61C344.797 332.573 344.125 331.608 343.34 330.74C342.393 329.805 341.248 329.094 339.99 328.66C338.382 328.076 336.627 328.03 334.99 328.53L334.74 327.67L335.23 327.53L335.37 328.43C334.513 328.636 333.734 329.087 333.13 329.73C332.393 330.429 331.723 331.196 331.13 332.02C330.436 332.836 329.951 333.809 329.717 334.854C329.484 335.9 329.509 336.986 329.79 338.02C330.221 339.644 331.173 341.081 332.5 342.11C333.741 343.079 335.219 343.697 336.78 343.9C337.502 343.984 338.233 343.967 338.95 343.85C339.624 343.726 340.277 343.507 340.89 343.2C342.001 342.63 342.964 341.808 343.7 340.8C344.813 339.331 345.438 337.552 345.49 335.71C345.46 334.36 345.23 333.64 345.33 333.61Z" fill="#FAFAFA"/>
<path d="M280.8 301C280.818 301.089 280.818 301.181 280.8 301.27C280.8 301.47 280.8 301.73 280.8 302.05C280.8 302.78 280.71 303.79 280.65 305.05C280.49 307.67 280.34 311.46 280.13 316.14C279.74 325.51 279.35 338.45 279.05 352.76C278.75 367.07 278.56 380.02 278.42 389.39C278.35 394.05 278.29 397.83 278.25 400.5C278.25 401.77 278.2 402.78 278.19 403.5C278.19 403.82 278.19 404.08 278.19 404.29C278.203 404.38 278.203 404.47 278.19 404.56C278.175 404.471 278.175 404.379 278.19 404.29C278.19 404.08 278.19 403.82 278.19 403.5C278.19 402.77 278.19 401.76 278.19 400.5V389.4C278.19 380.02 278.36 367.07 278.67 352.75C278.98 338.43 279.41 325.5 279.9 316.13C280.16 311.45 280.37 307.66 280.59 305.05C280.69 303.77 280.77 302.76 280.83 302.05C280.83 301.73 280.89 301.47 280.91 301.26C280.862 301.178 280.825 301.091 280.8 301V301Z" fill="#263238"/>
<g opacity="0.2">
<path d="M261.69 393.93C267.27 396.6 274.56 391.47 277.41 385.99C277.41 385.99 278.9 373.89 278.7 367.71C278.31 356.27 279.15 344.94 278.76 333.5C277.884 340.349 275.051 346.801 270.6 352.08C269.37 353.53 267.99 354.97 267.53 356.81C266.71 360.11 269.23 366.04 270.85 369.03C275.85 378.17 264.95 394.03 262.05 393.7" fill="black"/>
</g>
<g opacity="0.2">
<path d="M366.12 319.28C367.94 342.08 369.767 364.883 371.6 387.69C371.654 389.851 372.059 391.989 372.8 394.02C373.18 395.034 373.794 395.944 374.594 396.674C375.394 397.404 376.356 397.934 377.4 398.22C380.64 398.88 383.79 396.09 384.7 392.91C385.61 389.73 384.89 386.34 384.09 383.13C382.73 377.66 381.2 372.24 379.66 366.82C375.2 351.087 370.737 335.357 366.27 319.63" fill="black"/>
</g>
<path d="M303.44 436.07C304.131 434.944 304.646 433.72 304.97 432.44C305.53 429.97 305.18 426.15 303.26 422.02C302.32 419.95 300.99 417.8 299.65 415.44C298.118 412.935 296.978 410.21 296.27 407.36C295.673 404.126 295.914 400.794 296.97 397.68C297.97 394.46 299.42 391.33 300.59 388.05C302.938 381.918 303.114 375.166 301.09 368.92C300.219 366.216 298.941 363.66 297.3 361.34C295.852 359.325 294.155 357.5 292.25 355.91C289.461 353.612 286.28 351.837 282.86 350.67C280.43 349.86 279.01 349.67 279.03 349.55C279.366 349.53 279.703 349.561 280.03 349.64C281.015 349.783 281.988 350 282.94 350.29C286.476 351.312 289.78 353.01 292.67 355.29C294.665 356.881 296.444 358.727 297.96 360.78C299.683 363.157 301.032 365.784 301.96 368.57C304.104 375.016 303.948 382.006 301.52 388.35C300.32 391.69 298.86 394.8 297.9 397.93C296.875 400.877 296.62 404.037 297.16 407.11C297.818 409.878 298.897 412.529 300.36 414.97C301.65 417.34 302.96 419.52 303.89 421.67C305.77 425.96 306.03 429.95 305.31 432.49C305.043 433.461 304.628 434.385 304.08 435.23C303.71 435.83 303.47 436.09 303.44 436.07Z" fill="#FAFAFA"/>
<path d="M397.32 271.56C397.126 272.288 396.786 272.968 396.32 273.56C395.183 275.253 393.705 276.691 391.98 277.78C389.409 279.402 386.481 280.37 383.45 280.6C379.764 280.85 376.065 280.378 372.56 279.21C368.988 278.171 365.724 276.276 363.05 273.69C361.902 272.527 360.964 271.174 360.28 269.69C359.701 268.391 359.336 267.006 359.2 265.59C358.972 263.539 359.362 261.467 360.32 259.64C360.466 259.358 360.633 259.087 360.82 258.83C360.947 258.632 361.095 258.448 361.26 258.28C361.51 258.01 361.66 257.87 361.69 257.9C361.72 257.93 361.24 258.56 360.69 259.82C359.929 261.614 359.674 263.581 359.95 265.51C360.12 266.834 360.498 268.124 361.07 269.33C361.751 270.701 362.657 271.948 363.75 273.02C366.338 275.453 369.467 277.236 372.88 278.22C376.263 279.352 379.828 279.837 383.39 279.65C386.285 279.48 389.098 278.626 391.6 277.16C393.287 276.165 394.778 274.871 396 273.34C396.409 272.724 396.85 272.13 397.32 271.56Z" fill="#FAFAFA"/>
<path d="M383.63 379.13C383.63 379.13 383.58 379.04 383.52 378.85C383.46 378.66 383.37 378.36 383.26 378.01C383.04 377.24 382.72 376.16 382.31 374.78L378.91 362.85C376.07 352.74 372.17 338.85 367.91 323.45C365.77 315.75 363.74 308.45 361.91 301.74C360.986 298.584 360.274 295.371 359.78 292.12C359.36 289.272 359.36 286.378 359.78 283.53C360.376 279.366 362.372 275.529 365.44 272.65C366.293 271.904 367.237 271.268 368.25 270.76L369.06 270.42C369.147 270.372 369.242 270.338 369.34 270.32C367.971 270.962 366.702 271.798 365.57 272.8C362.606 275.688 360.697 279.488 360.15 283.59C359.767 286.403 359.797 289.256 360.24 292.06C360.748 295.288 361.469 298.478 362.4 301.61C364.26 308.29 366.31 315.61 368.46 323.31C372.71 338.7 376.56 352.63 379.35 362.75C380.72 367.75 381.82 371.86 382.6 374.75C382.96 376.14 383.25 377.24 383.45 378.02C383.54 378.37 383.61 378.65 383.66 378.87C383.661 378.958 383.65 379.045 383.63 379.13Z" fill="#263238"/>
<path d="M342.9 157.68C342.982 156.969 342.982 156.251 342.9 155.54C342.596 153.601 341.619 151.83 340.14 150.54C337.915 148.66 335.047 147.717 332.14 147.91C328.87 147.91 325.39 149.01 321.79 150.22C319.99 150.81 318.2 151.38 316.44 151.77C314.741 152.145 313.01 152.356 311.27 152.4C308.322 152.477 305.379 152.092 302.55 151.26C300.654 150.689 298.826 149.911 297.1 148.94C296.628 148.686 296.17 148.406 295.73 148.1C295.567 148.005 295.416 147.891 295.28 147.76C295.28 147.76 295.96 148.14 297.2 148.76C298.944 149.651 300.773 150.364 302.66 150.89C305.455 151.66 308.352 151.997 311.25 151.89C312.959 151.833 314.66 151.619 316.33 151.25C318.06 150.86 319.82 150.25 321.63 149.7C325.22 148.49 328.77 147.4 332.13 147.4C335.136 147.235 338.087 148.255 340.35 150.24C341.857 151.591 342.823 153.442 343.07 155.45C343.189 156.196 343.13 156.96 342.9 157.68V157.68Z" fill="#455A64"/>
<path d="M356.66 187.57C356.66 187.57 356.56 187.45 356.42 187.2C356.28 186.95 356.1 186.57 355.87 186.07C355.255 184.658 354.786 183.187 354.47 181.68C353.99 179.434 353.835 177.13 354.01 174.84C354.345 172.067 354.873 169.32 355.59 166.62C356.286 163.958 356.286 161.162 355.59 158.5C355.258 157.36 354.681 156.305 353.9 155.41C353.203 154.655 352.331 154.085 351.36 153.75C349.945 153.213 348.376 153.253 346.99 153.86C346.508 154.128 346.055 154.446 345.64 154.81C345.955 154.331 346.389 153.941 346.9 153.68C347.606 153.329 348.375 153.124 349.162 153.076C349.948 153.028 350.737 153.138 351.48 153.4C352.522 153.736 353.464 154.327 354.22 155.12C355.056 156.052 355.68 157.154 356.05 158.35C356.777 161.096 356.777 163.984 356.05 166.73C355.337 169.409 354.799 172.131 354.44 174.88C354.251 177.125 354.365 179.385 354.78 181.6C355.062 183.096 355.473 184.565 356.01 185.99C356.44 187 356.7 187.55 356.66 187.57Z" fill="#455A64"/>
<path d="M344.6 156.25C344.578 156.014 344.578 155.776 344.6 155.54C344.6 155.03 344.6 154.36 344.68 153.54C344.791 151.062 344.514 148.582 343.86 146.19C343.369 144.565 342.568 143.05 341.5 141.73C340.292 140.211 338.632 139.115 336.76 138.6C334.665 138.114 332.478 138.204 330.43 138.86C328.213 139.559 326.087 140.523 324.1 141.73C322.083 142.947 319.985 144.023 317.82 144.95C315.755 145.756 313.566 146.196 311.35 146.25C309.352 146.301 307.358 146.058 305.43 145.53C303.76 145.045 302.15 144.374 300.63 143.53C298.438 142.292 296.506 140.642 294.94 138.67C294.509 138.142 294.121 137.58 293.78 136.99C293.646 136.795 293.532 136.588 293.44 136.37C293.603 136.54 293.748 136.728 293.87 136.93C294.239 137.494 294.646 138.032 295.09 138.54C296.694 140.427 298.629 142.006 300.8 143.2C302.305 144.003 303.895 144.637 305.54 145.09C307.432 145.586 309.385 145.809 311.34 145.75C313.495 145.685 315.623 145.249 317.63 144.46C319.77 143.531 321.845 142.459 323.84 141.25C325.867 140.03 328.032 139.056 330.29 138.35C332.425 137.679 334.702 137.596 336.88 138.11C338.844 138.661 340.579 139.828 341.83 141.44C342.925 142.809 343.734 144.383 344.21 146.07C344.852 148.498 345.078 151.017 344.88 153.52C344.83 154.41 344.76 155.09 344.7 155.52C344.698 155.767 344.664 156.012 344.6 156.25V156.25Z" fill="#455A64"/>
<path d="M318.19 406.3L393 395.15L391.8 388.49H432L433.17 398.73C434.027 403.18 433.896 407.765 432.786 412.159C431.676 416.553 429.613 420.65 426.744 424.159C423.876 427.668 420.271 430.503 416.185 432.465C412.099 434.426 407.632 435.466 403.1 435.51L315.88 434.51L318.19 406.3Z" fill="#B78876"/>
<path d="M323.59 407.59C323.19 407.72 318.15 405.46 313.64 403.37C308.852 401.144 303.594 400.115 298.32 400.37L277.53 401.43C277.53 401.43 278.81 404.86 281.02 406.08C283.23 407.3 296.15 407.56 296.15 407.56L295.48 408.24C292.759 411.045 289.047 412.671 285.14 412.77L283.14 412.82C281.666 412.703 280.21 412.418 278.8 411.97L273.67 409.9C272.12 409.2 270.48 409.31 269.8 410.9C269.19 412.31 269.64 414.26 273.88 416.39C276.24 417.58 285.02 420.62 285.02 420.62C285.077 421.866 285.248 423.105 285.53 424.32C285.91 425.6 289.36 426.87 289.36 426.87C290.255 428.77 291.277 430.608 292.42 432.37C292.82 432.82 295.95 433.79 299.27 434.73C304.632 436.238 310.312 436.193 315.65 434.6L323.58 432.24V408.11" fill="#B78876"/>
<path d="M295.14 423.35C291.477 423.254 287.886 422.309 284.65 420.59C284.71 420.45 286.98 421.33 289.87 422.08C292.76 422.83 295.16 423.2 295.14 423.35Z" fill="#AA6550"/>
<path d="M294.41 428.22C293.437 428.43 292.423 428.358 291.49 428.01C290.509 427.832 289.597 427.382 288.86 426.71C289.801 426.91 290.727 427.177 291.63 427.51C292.572 427.68 293.501 427.917 294.41 428.22V428.22Z" fill="#AA6550"/>
<path d="M412.73 412.59C412.63 412.59 412.14 411.14 410.94 408.95C410.237 407.669 409.434 406.446 408.54 405.29C407.445 403.878 406.231 402.563 404.91 401.36C403.569 400.177 402.131 399.11 400.61 398.17C399.366 397.406 398.065 396.737 396.72 396.17C394.41 395.22 392.88 394.88 392.91 394.78C393.281 394.81 393.647 394.884 394 395C394.42 395.083 394.834 395.193 395.24 395.33C395.72 395.48 396.24 395.63 396.86 395.87C398.247 396.393 399.585 397.035 400.86 397.79C402.422 398.723 403.895 399.797 405.26 401C406.599 402.222 407.827 403.561 408.93 405C409.815 406.19 410.594 407.455 411.26 408.78C411.57 409.33 411.77 409.87 411.98 410.33C412.156 410.72 412.306 411.121 412.43 411.53C412.574 411.87 412.674 412.226 412.73 412.59V412.59Z" fill="#AA6550"/>
<path d="M298.21 405.72C297.75 406.355 297.213 406.929 296.61 407.43C295.229 408.734 293.71 409.884 292.08 410.86C290.43 411.821 288.638 412.513 286.77 412.91C286.008 413.117 285.218 413.201 284.43 413.16C284.38 412.97 288.03 412.64 291.81 410.41C293.412 409.448 294.934 408.358 296.36 407.15C296.929 406.615 297.549 406.136 298.21 405.72V405.72Z" fill="#AA6550"/>
<path d="M83.08 382C84.86 382 69.46 423.38 65.49 433.95C65.05 435.12 64.75 436.15 64.75 436.15L172.57 436.33L171.3 336C171.304 335.933 171.304 335.867 171.3 335.8L162.3 264.04C162.256 263.692 162.11 263.365 161.88 263.1C161.651 262.835 161.348 262.644 161.01 262.55C156.74 261.4 141.35 257.43 129.58 256.99C115.79 256.48 95.83 259.22 95.83 259.22C95.83 259.22 77.9 261 68 264.6C67.6173 264.737 67.2936 265.002 67.084 265.35C66.8744 265.698 66.7917 266.108 66.85 266.51L83.08 382Z" fill="#5579D9"/>
<path d="M132.87 337.5C132.733 337.953 132.552 338.392 132.33 338.81C132.11 339.316 131.856 339.808 131.57 340.28C131.224 340.924 130.844 341.548 130.43 342.15C129.945 342.896 129.417 343.614 128.85 344.3C128.227 345.1 127.559 345.865 126.85 346.59C125.203 348.25 123.394 349.74 121.45 351.04C119.478 352.3 117.388 353.365 115.21 354.22C114.21 354.57 113.21 354.93 112.3 355.16C111.445 355.402 110.577 355.596 109.7 355.74C108.982 355.878 108.258 355.978 107.53 356.04C106.98 356.115 106.425 356.152 105.87 356.15C105.401 356.202 104.929 356.202 104.46 356.15C104.46 356.04 106.46 356.05 109.63 355.41C110.49 355.24 111.341 355.027 112.18 354.77C113.1 354.53 114.04 354.16 115.03 353.77C117.168 352.907 119.22 351.845 121.16 350.6C123.077 349.323 124.869 347.866 126.51 346.25C127.24 345.48 127.96 344.77 128.51 344.02C129.084 343.357 129.622 342.662 130.12 341.94C132 339.31 132.77 337.45 132.87 337.5Z" fill="#263238"/>
<g opacity="0.2">
<path d="M68.41 426.1C73.4628 428.171 78.9645 428.903 84.383 428.225C89.8015 427.547 94.9532 425.482 99.34 422.23C103.23 419.41 106.49 415.72 110.69 413.37C116.51 410.13 123.44 409.82 130.09 409.37C138.98 408.73 147.95 407.64 156.31 404.54C158.054 404.03 159.636 403.076 160.9 401.77C162.05 400.38 162.44 398.19 161.31 396.77C160.18 395.35 158.03 395.25 156.18 395.31C128.3 396.13 102.82 398.36 75.68 404.81" fill="black"/>
</g>
<path d="M98.46 153.76C107.08 144.98 120.68 139.76 131.94 144.76C139.52 148.08 144.66 155.19 151.31 160.1C156.15 163.68 162.13 166.45 164.67 171.91C166.91 176.72 165.83 182.33 165.29 187.61C164.75 192.89 165.13 198.98 169.22 202.37C171.36 204.14 174.22 204.85 176.61 206.23C181.48 209.02 184.37 214.45 185.41 219.96C186.45 225.47 185.89 231.15 185.33 236.74L162.12 241.16L158.31 234.75L157 244.8L127.38 247.47L98.46 153.76Z" fill="#263238"/>
<path d="M94.63 163.34V169.79L92.8 266.6C92.64 277.82 103.38 287.37 115.4 287.45C127.53 287.53 132.48 278.45 132.83 267.08C133.19 255.19 133.83 242.67 133.83 242.67C133.83 242.67 149.22 240.55 152.95 220.67C154.8 210.77 154.75 194.46 154.28 181.11C154.181 178.261 153.506 175.462 152.296 172.881C151.087 170.3 149.368 167.99 147.243 166.091C145.117 164.192 142.629 162.742 139.929 161.829C137.229 160.917 134.372 160.56 131.53 160.78L94.63 163.34Z" fill="#FFBE9D"/>
<path d="M148.92 193.94C148.91 194.608 148.638 195.244 148.163 195.714C147.688 196.183 147.048 196.447 146.38 196.45C146.053 196.467 145.726 196.419 145.419 196.308C145.111 196.198 144.828 196.026 144.588 195.804C144.347 195.582 144.154 195.315 144.018 195.017C143.883 194.719 143.809 194.397 143.8 194.07C143.813 193.402 144.085 192.766 144.559 192.295C145.034 191.825 145.672 191.558 146.34 191.55C146.667 191.533 146.995 191.581 147.304 191.692C147.612 191.804 147.895 191.976 148.136 192.199C148.376 192.422 148.57 192.691 148.704 192.99C148.839 193.289 148.912 193.612 148.92 193.94Z" fill="#263238"/>
<path d="M150.43 189.46C150.1 189.79 148.2 188.29 145.43 188.23C142.66 188.17 140.61 189.48 140.32 189.13C140.18 188.98 140.52 188.39 141.42 187.77C142.634 186.97 144.068 186.571 145.52 186.63C146.969 186.654 148.372 187.145 149.52 188.03C150.32 188.7 150.59 189.31 150.43 189.46Z" fill="#263238"/>
<path d="M121.74 193.94C121.727 194.607 121.454 195.242 120.98 195.711C120.506 196.18 119.867 196.445 119.2 196.45C118.873 196.467 118.546 196.419 118.239 196.308C117.931 196.198 117.648 196.026 117.408 195.804C117.167 195.582 116.974 195.315 116.838 195.017C116.703 194.719 116.629 194.397 116.62 194.07C116.633 193.402 116.905 192.766 117.379 192.295C117.854 191.825 118.492 191.558 119.16 191.55C119.488 191.533 119.815 191.581 120.124 191.692C120.432 191.804 120.715 191.976 120.956 192.199C121.196 192.422 121.39 192.691 121.524 192.99C121.659 193.289 121.732 193.612 121.74 193.94Z" fill="#263238"/>
<path d="M123.29 189.23C122.96 189.55 121.06 188.06 118.29 187.99C115.52 187.92 113.47 189.25 113.18 188.9C113.04 188.75 113.38 188.15 114.28 187.54C115.494 186.74 116.927 186.338 118.38 186.39C119.829 186.417 121.231 186.907 122.38 187.79C123.18 188.47 123.45 189.08 123.29 189.23Z" fill="#263238"/>
<path d="M132.74 210C132.74 209.84 134.46 209.59 137.24 209.31C137.95 209.26 138.62 209.14 138.75 208.66C138.832 207.935 138.689 207.201 138.34 206.56C137.73 204.83 137.08 203.03 136.4 201.13C133.72 193.42 131.8 187.13 132.11 186.97C132.42 186.81 134.85 193.04 137.53 200.76C138.18 202.66 138.8 204.47 139.38 206.21C139.805 207.069 139.908 208.052 139.67 208.98C139.561 209.227 139.398 209.445 139.191 209.618C138.985 209.792 138.742 209.916 138.48 209.98C138.088 210.077 137.684 210.121 137.28 210.11C134.48 210.16 132.75 210.12 132.74 210Z" fill="#263238"/>
<path d="M133.75 242.67C124.331 242.556 115.129 239.828 107.17 234.79C107.17 234.79 113.28 248.7 133.35 247.38L133.75 242.67Z" fill="#EB996E"/>
<path d="M131.39 216.58C130.885 215.9 130.215 215.36 129.443 215.01C128.672 214.661 127.824 214.513 126.98 214.58C126.37 214.619 125.773 214.781 125.227 215.056C124.681 215.331 124.195 215.713 123.8 216.18C123.42 216.63 123.187 217.185 123.132 217.771C123.076 218.358 123.201 218.947 123.49 219.46C123.924 219.964 124.497 220.328 125.138 220.506C125.779 220.685 126.458 220.668 127.09 220.46C128.402 220.033 129.618 219.353 130.67 218.46C130.99 218.249 131.265 217.977 131.48 217.66C131.578 217.511 131.63 217.338 131.63 217.16C131.63 216.982 131.578 216.808 131.48 216.66" fill="#EB996E"/>
<path d="M124.57 211.65C125.02 211.65 124.94 214.65 127.44 216.83C129.94 219.01 133.15 218.78 133.16 219.2C133.16 219.39 132.43 219.77 131.08 219.76C129.326 219.741 127.635 219.1 126.31 217.95C125.035 216.851 124.238 215.297 124.09 213.62C124 212.36 124.36 211.63 124.57 211.65Z" fill="#263238"/>
<path d="M124.17 181.2C123.87 181.94 121.17 181.51 117.88 181.81C114.59 182.11 111.99 182.92 111.58 182.24C111.4 181.91 111.87 181.24 112.95 180.52C114.384 179.67 115.993 179.158 117.654 179.021C119.315 178.884 120.986 179.126 122.54 179.73C123.71 180.24 124.29 180.85 124.17 181.2Z" fill="#263238"/>
<path d="M150.53 183.89C149.92 184.5 147.63 183.78 144.84 183.67C142.05 183.56 139.7 183.95 139.17 183.28C138.94 182.96 139.33 182.34 140.38 181.78C141.823 181.075 143.428 180.764 145.03 180.88C146.626 180.933 148.179 181.409 149.53 182.26C150.49 182.93 150.8 183.59 150.53 183.89Z" fill="#263238"/>
<path d="M74 262.77C74 262.77 41.84 270.31 35.6 300.77C32.73 314.77 28.72 395.24 47.46 407.77C71.65 423.91 102.46 409.23 102.46 409.23L98.46 370.31H78.46L75.77 327.67C76.55 331 74 262.77 74 262.77Z" fill="#5579D9"/>
<path d="M188.4 396.71C194.708 396.063 200.531 393.031 204.678 388.233C208.825 383.436 210.983 377.235 210.71 370.9L197.57 315.07C197.57 315.07 189.05 267.17 162.12 262.85L171.3 335.85L170.42 351.24C170.42 351.24 170.84 361.42 171.87 380.5L188.4 396.71Z" fill="#5579D9"/>
<path d="M191.88 361.78C190.256 361.84 188.638 362.017 187.04 362.31C183.181 363.094 179.646 365.016 176.89 367.829C174.134 370.642 172.285 374.216 171.58 378.09C171.319 379.697 171.175 381.322 171.15 382.95C171.045 382.518 170.994 382.075 171 381.63C170.946 380.422 171.02 379.212 171.22 378.02C171.859 374.041 173.723 370.36 176.551 367.489C179.379 364.618 183.031 362.699 187 362C188.19 361.781 189.4 361.68 190.61 361.7C191.035 361.675 191.462 361.702 191.88 361.78Z" fill="#263238"/>
<path d="M108.91 151.53C112.53 156.39 114.25 160.12 116.42 168.77C117.49 173 114.04 175.99 110.62 178.58C110.252 178.859 109.82 179.042 109.363 179.11C108.907 179.179 108.44 179.131 108.007 178.971C107.573 178.812 107.187 178.546 106.884 178.198C106.58 177.85 106.369 177.431 106.27 176.98V176.98C106.27 176.98 107.45 190.23 102.66 196.17C100.42 198.96 100.32 202.53 100.85 205.54C101.451 208.601 102.94 211.418 105.13 213.64C110.69 219.48 112.23 229.01 108.4 236.17C107.29 237.93 106.272 239.745 105.35 241.61C104.884 242.723 104.668 243.925 104.72 245.13C104.779 245.837 104.567 246.54 104.127 247.097C103.687 247.654 103.052 248.023 102.35 248.13C85.8935 250.51 69.2196 251.01 52.65 249.62C52.0803 249.574 51.5393 249.351 51.1034 248.981C50.6674 248.612 50.3584 248.114 50.22 247.56C48.92 242 51.09 236 53.86 231C56.96 225.35 60.86 219.93 61.97 213.58C62.97 207.58 61.34 201.16 63.74 195.58C66.74 188.75 74.74 185.52 78.74 179.25C82.53 173.34 82.22 165.59 85.61 159.45C89.97 151.55 100.68 147.91 108.94 151.52" fill="#263238"/>
<path d="M109.83 158.86C116.12 162.1 119.03 169.79 125.14 173.35C130.7 176.59 137.64 175.74 144.01 174.78C143.78 173.37 143.54 171.95 143.3 170.54C143.873 171.816 144.673 172.978 145.66 173.97C146.161 174.459 146.786 174.803 147.468 174.965C148.149 175.127 148.862 175.101 149.53 174.89C151.67 174.03 151.95 171.09 151.41 168.89C150.432 165.309 148.512 162.056 145.85 159.47C141.094 154.643 134.758 151.689 128.003 151.149C121.247 150.609 114.523 152.519 109.06 156.53" fill="#263238"/>
<path d="M168.8 301.21C168.846 301.471 168.866 301.735 168.86 302C168.86 302.56 168.86 303.31 168.93 304.25C168.93 306.25 169.07 309.04 169.22 312.53C169.51 319.53 170.16 329.17 170.95 339.82C171.74 350.47 172.33 360.13 172.52 367.13C172.62 370.63 172.67 373.46 172.64 375.42C172.64 376.36 172.64 377.11 172.64 377.67C172.664 377.933 172.664 378.197 172.64 378.46C172.594 378.199 172.574 377.935 172.58 377.67C172.58 377.11 172.58 376.36 172.51 375.42C172.51 373.42 172.37 370.64 172.22 367.14C171.94 360.14 171.28 350.51 170.5 339.85C169.72 329.19 169.11 319.55 168.92 312.55C168.82 309.05 168.78 306.21 168.8 304.25C168.8 303.31 168.8 302.56 168.8 302C168.783 301.737 168.783 301.473 168.8 301.21V301.21Z" fill="#263238"/>
<path d="M78.49 370.32C78.4444 370.137 78.4209 369.949 78.42 369.76C78.42 369.33 78.36 368.76 78.31 368.15C78.23 366.68 78.12 364.69 77.99 362.25C77.7 357.25 77.26 350.38 76.74 342.77C76.22 335.16 75.74 328.35 75.39 323.3C75.23 320.87 75.1 318.87 75 317.4C75 316.75 74.94 316.22 74.92 315.8C74.8962 315.611 74.8962 315.419 74.92 315.23C74.9688 315.413 74.999 315.601 75.01 315.79C75.01 316.21 75.12 316.74 75.19 317.39C75.33 318.85 75.52 320.84 75.75 323.28C76.19 328.28 76.75 335.13 77.25 342.74C77.75 350.35 78.15 357.24 78.34 362.23C78.43 364.73 78.5 366.75 78.51 368.14V369.75C78.529 369.94 78.5223 370.132 78.49 370.32V370.32Z" fill="#263238"/>
<path d="M78.49 370.32C78.49 370.41 77.49 370.46 75.87 370.99C73.8202 371.668 71.999 372.903 70.6095 374.555C69.2199 376.208 68.3165 378.214 68 380.35C67.75 381.99 67.88 383.03 67.79 383.04C67.7 383.05 67.69 382.79 67.63 382.32C67.5557 381.655 67.5557 380.985 67.63 380.32C67.864 378.078 68.7624 375.958 70.21 374.23C71.6744 372.52 73.6071 371.275 75.77 370.65C76.4231 370.468 77.0933 370.354 77.77 370.31C78.23 370.26 78.49 370.28 78.49 370.32Z" fill="#263238"/>
<path d="M102.41 409.24C102.347 409.038 102.307 408.831 102.29 408.62C102.23 408.16 102.16 407.57 102.06 406.84C101.88 405.23 101.63 403.02 101.32 400.3C100.73 394.72 99.93 387.11 99.05 378.71C98.76 375.79 98.47 372.96 98.21 370.34L98.46 370.57L82.46 370.47L77.81 370.4H76.57C76.4272 370.417 76.2828 370.417 76.14 370.4C76.2801 370.362 76.425 370.346 76.57 370.35H77.81L82.46 370.28L98.46 370.19H98.68V370.42L99.54 378.78C100.36 387.19 101.1 394.78 101.65 400.4C101.89 403.12 102.09 405.34 102.23 406.95C102.29 407.68 102.33 408.28 102.37 408.74C102.397 408.905 102.411 409.072 102.41 409.24V409.24Z" fill="#263238"/>
<path d="M102.41 409.24C102.163 409.346 101.909 409.436 101.65 409.51L99.46 410.21C97.55 410.81 94.78 411.65 91.32 412.57C87.2701 413.677 83.1555 414.532 79 415.13C73.8782 415.823 68.673 415.575 63.64 414.4C61.0318 413.837 58.4604 413.116 55.94 412.24C54.73 411.8 53.54 411.36 52.39 410.88C51.82 410.64 51.25 410.41 50.71 410.12L49.89 409.71L49.12 409.22C47.24 407.948 45.6068 406.346 44.3 404.49C43.1504 402.893 42.1463 401.196 41.3 399.42C40.1117 396.852 39.1091 394.202 38.3 391.49C38 390.49 37.78 389.79 37.65 389.28C37.5685 389.021 37.505 388.757 37.46 388.49C37.5796 388.734 37.6766 388.988 37.75 389.25L38.49 391.43C39.3772 394.101 40.4327 396.713 41.65 399.25C42.5027 401.001 43.5065 402.674 44.65 404.25C45.9406 406.05 47.5465 407.602 49.39 408.83L50.13 409.3L50.92 409.7C51.44 409.98 52.01 410.2 52.58 410.44C53.72 410.91 54.9 411.35 56.11 411.77C58.6109 412.638 61.1623 413.352 63.75 413.91C68.7267 415.072 73.8713 415.333 78.94 414.68C83.0801 414.103 87.1836 413.289 91.23 412.24C94.69 411.36 97.47 410.57 99.4 410.04L101.62 409.43C101.876 409.34 102.141 409.276 102.41 409.24Z" fill="#263238"/>
<path d="M85.44 175.22C86.4006 172.86 86.6349 170.267 86.1129 167.773C85.591 165.278 84.3364 162.997 82.51 161.22C80.6327 159.504 78.334 158.317 75.8482 157.779C73.3624 157.242 70.7785 157.373 68.36 158.16C66.157 158.823 64.221 160.167 62.83 162C60.38 165.38 60.83 170.36 63.39 173.69C64.7293 175.302 66.3971 176.609 68.2819 177.525C70.1668 178.44 72.2253 178.943 74.32 179C78.5176 179.084 82.6803 178.223 86.5 176.48" fill="#263238"/>
<path d="M118.69 333.82C125.69 339.59 142.15 353.25 142.15 353.25L151.36 351.61L123.44 328.12C122.716 327.515 121.789 327.208 120.848 327.262C119.906 327.315 119.02 327.726 118.37 328.41V328.41C118.017 328.777 117.744 329.213 117.568 329.69C117.392 330.168 117.317 330.677 117.347 331.185C117.377 331.693 117.512 332.189 117.743 332.643C117.974 333.096 118.296 333.497 118.69 333.82V333.82Z" fill="#455A64"/>
<path d="M118 330.82L114.38 327.55C114.04 327.241 113.832 326.813 113.8 326.354C113.768 325.896 113.915 325.443 114.21 325.09V325.09C114.365 324.909 114.555 324.761 114.768 324.654C114.981 324.548 115.213 324.485 115.451 324.471C115.689 324.456 115.927 324.489 116.152 324.567C116.377 324.646 116.584 324.77 116.76 324.93L120.25 328.13L118 330.82Z" fill="#455A64"/>
<path d="M128.74 332.58C128.127 333.601 127.369 334.527 126.49 335.33C125.733 336.248 124.851 337.056 123.87 337.73C124.484 336.707 125.242 335.778 126.12 334.97C126.872 334.05 127.755 333.245 128.74 332.58V332.58Z" fill="#263238"/>
<path d="M129 344.08C128.015 343.562 127.081 342.953 126.21 342.26C124.55 341.06 122.3 339.32 119.93 337.26C118.716 336.356 117.713 335.199 116.99 333.87C116.478 332.706 116.446 331.387 116.9 330.2C117.203 329.412 117.715 328.721 118.38 328.2C118.85 327.85 119.16 327.74 119.17 327.77C119.18 327.8 118.92 327.97 118.51 328.36C117.929 328.91 117.496 329.598 117.25 330.36C116.879 331.459 116.943 332.657 117.43 333.71C118.152 334.957 119.122 336.043 120.28 336.9C122.63 338.95 124.83 340.73 126.44 342C127.336 342.639 128.191 343.334 129 344.08V344.08Z" fill="#263238"/>
<path d="M98.77 373.43C105.41 371.21 112.45 372.71 119.08 370.48C121.356 369.882 123.489 368.831 125.35 367.39C127.46 365.52 128.53 362.77 130.21 360.51C135.21 353.75 144.6 352.35 152.98 351.51C154.923 351.197 156.906 351.224 158.84 351.59C159.807 351.785 160.707 352.226 161.453 352.871C162.199 353.515 162.767 354.342 163.1 355.27C163.64 357.16 162.42 359.52 160.46 359.72C162.3 359.8 163.58 361.66 163.92 363.47C164.26 365.28 163.92 367.14 164.2 368.96C164.54 371.52 165.94 373.91 165.86 376.49C165.75 380.02 162.86 382.93 159.56 384.29C156.26 385.65 152.69 385.83 149.2 386.29C132 388.71 119 398.46 102.41 405.83" fill="#FFBE9D"/>
<path d="M164.08 365.82C164.249 366.096 164.473 366.334 164.738 366.52C165.003 366.705 165.303 366.834 165.62 366.899C165.937 366.964 166.264 366.963 166.581 366.896C166.897 366.829 167.196 366.698 167.46 366.51C167.973 366.101 168.366 365.561 168.595 364.946C168.824 364.331 168.881 363.665 168.76 363.02C168.498 361.73 167.929 360.522 167.1 359.5C165.639 357.609 164.034 355.834 162.3 354.19L157 358.65L164.08 365.82Z" fill="#FFBE9D"/>
<path d="M162.12 360C162.12 360.17 158.86 359.9 154.93 360.51C151 361.12 147.93 362.3 147.93 362.15C148.528 361.755 149.182 361.452 149.87 361.25C151.493 360.674 153.168 360.252 154.87 359.99C156.574 359.732 158.299 359.641 160.02 359.72C160.73 359.711 161.437 359.806 162.12 360V360Z" fill="#EB996E"/>
<path d="M164.46 370.42C164.46 370.58 161.73 370.02 158.36 370.12C154.99 370.22 152.31 370.88 152.28 370.72C156.205 369.329 160.471 369.224 164.46 370.42V370.42Z" fill="#EB996E"/>
<path d="M163.9 367.34C163.81 367.34 163.9 366.56 163.75 365.34C163.558 363.757 163.007 362.238 162.14 360.9C161.932 360.577 161.705 360.266 161.46 359.97L161.31 359.78L161.47 359.62C161.926 359.157 162.284 358.606 162.523 358.001C162.762 357.397 162.877 356.75 162.86 356.1C162.86 355.1 162.56 354.54 162.63 354.51C162.987 354.956 163.184 355.509 163.19 356.08C163.267 356.792 163.184 357.512 162.949 358.188C162.714 358.864 162.332 359.479 161.83 359.99V359.64C162.092 359.959 162.336 360.293 162.56 360.64C163.473 362.046 164.004 363.666 164.1 365.34C164.179 366.013 164.111 366.696 163.9 367.34V367.34Z" fill="#EB996E"/>
<path d="M164.09 365.25L172.81 373.43L173.92 378.29L165.86 376.47C164.7 372.37 163.85 368.46 164.09 365.25Z" fill="#455A64"/>
<path d="M152.28 375.67C152.1 375.99 105.2 399.11 105.2 399.11V404.11L153.06 379.21L212.43 377V373.48L152.28 375.67Z" fill="#F5F5F5"/>
<path d="M105.2 404.8C105.53 404.58 156.98 399.94 156.98 399.94L212.43 376.94L153.06 379.18L105.2 404.08V404.8Z" fill="#263238"/>
<path d="M154.46 392.49C154.05 389.79 156.63 387.49 159.26 386.76C161.89 386.03 164.7 386.33 167.36 385.76C169.048 385.296 170.699 384.708 172.3 384C180.5 380.86 189.5 380.69 198.3 380.57C198.811 381.762 198.891 383.095 198.526 384.34C198.161 385.584 197.374 386.663 196.3 387.39C197.027 389.541 196.931 391.886 196.03 393.97C195.123 396.035 193.883 397.937 192.36 399.6C191.21 401.122 189.73 402.364 188.03 403.23C186.252 403.882 184.362 404.174 182.47 404.09C176.57 404.21 170.25 404.22 165.38 400.91C161.59 398.33 158.97 393.91 154.58 392.61H155.58" fill="#FFBE9D"/>
<path d="M193.76 389.22C193.393 389.303 193.016 389.34 192.64 389.33L189.56 389.43C186.96 389.49 183.37 389.53 179.41 389.55H173.81C172.972 389.562 172.138 389.437 171.34 389.18C170.628 388.928 170.005 388.473 169.55 387.87C169.359 387.621 169.22 387.336 169.141 387.032C169.062 386.728 169.044 386.411 169.09 386.1C169.165 385.636 169.381 385.206 169.71 384.87C169.832 384.726 169.986 384.611 170.159 384.535C170.333 384.459 170.521 384.423 170.71 384.43C170.368 384.549 170.059 384.748 169.81 385.01C169.489 385.375 169.313 385.844 169.313 386.33C169.313 386.816 169.489 387.285 169.81 387.65C170.234 388.173 170.8 388.562 171.44 388.77C172.199 388.992 172.989 389.093 173.78 389.07H179.37C183.37 389.07 186.92 389.07 189.52 389.07L192.6 389.13C192.989 389.109 193.379 389.139 193.76 389.22Z" fill="#EB996E"/>
<path d="M190.74 394.16C190.279 394.291 189.807 394.382 189.33 394.43C188.41 394.58 187.08 394.77 185.43 394.93C183.486 395.125 181.53 395.168 179.58 395.06C177.198 394.866 174.836 394.471 172.52 393.88C168.339 392.86 164.053 392.333 159.75 392.31C158.1 392.31 156.75 392.37 155.84 392.42C155.358 392.462 154.872 392.462 154.39 392.42C154.858 392.293 155.337 392.213 155.82 392.18C157.121 392.019 158.429 391.926 159.74 391.9C164.081 391.81 168.414 392.291 172.63 393.33C174.929 393.916 177.269 394.324 179.63 394.55C181.558 394.682 183.492 394.682 185.42 394.55C187.07 394.44 188.42 394.3 189.32 394.22C189.79 394.153 190.266 394.132 190.74 394.16V394.16Z" fill="#EB996E"/>
<path d="M185.85 399.44C185.489 399.55 185.117 399.617 184.74 399.64C184.03 399.74 182.99 399.87 181.74 399.98C178.381 400.333 174.989 400.222 171.66 399.65C167.71 398.9 164.66 396.88 162.29 395.95C161.012 395.431 159.69 395.026 158.34 394.74C158.714 394.694 159.093 394.714 159.46 394.8C160.488 394.954 161.494 395.226 162.46 395.61C164.91 396.48 167.96 398.41 171.8 399.14C175.102 399.698 178.46 399.856 181.8 399.61L184.8 399.44C185.149 399.401 185.501 399.401 185.85 399.44V399.44Z" fill="#EB996E"/>
<g opacity="0.2">
<path d="M172.55 372.59C172.934 368.923 173.921 365.345 175.47 362C177.037 358.656 179.691 355.941 183 354.3C184.662 353.506 186.499 353.148 188.338 353.26C190.177 353.372 191.957 353.95 193.51 354.94C194.448 355.545 195.18 356.42 195.61 357.45C195.82 357.963 195.883 358.525 195.793 359.072C195.703 359.619 195.463 360.131 195.1 360.55C194 361.73 192.1 361.55 190.52 361.47C186.832 361.369 183.193 362.327 180.033 364.23C176.873 366.134 174.325 368.903 172.69 372.21" fill="black"/>
</g>
<g opacity="0.2">
<path d="M85.71 369.55C89.71 362.38 88.27 353.39 85.22 345.79C82.17 338.19 77.62 331.19 75.29 323.33C74.8515 339.274 77.1689 355.174 82.14 370.33" fill="black"/>
</g>
<path d="M92.75 259.88C92.75 259.88 97.6 271.31 115.1 270.58C132.6 269.85 133.16 256.28 133.16 256.28L144.87 268.73L133.75 291.64L118.81 302.79L98.46 294.43L81.69 281.43L92.75 259.88Z" fill="#5579D9"/>
<g opacity="0.5">
<path d="M51.77 308.74C51.95 308.96 49.67 311.1 46.66 313.51C43.65 315.92 41.08 317.69 40.9 317.46C40.72 317.23 43 315.11 46 312.7C49 310.29 51.59 308.51 51.77 308.74Z" fill="#FAFAFA"/>
</g>
<path d="M60 296.41C59.91 296.67 57.15 295.89 54.16 294.04C51.17 292.19 49.22 290.1 49.41 289.9C49.6 289.7 51.8 291.39 54.7 293.16C57.6 294.93 60.08 296.13 60 296.41Z" fill="#FAFAFA"/>
<path d="M75 297.75C75.24 297.93 73 301.14 70.51 305.22C68.02 309.3 66.09 312.7 65.83 312.57C65.57 312.44 67.06 308.8 69.63 304.67C72.2 300.54 74.79 297.57 75 297.75Z" fill="#FAFAFA"/>
<path d="M62.16 332.5C61.96 332.68 59.65 330.32 57.63 326.83C55.61 323.34 54.69 320.17 54.95 320.08C55.21 319.99 56.54 322.91 58.53 326.3C60.52 329.69 62.39 332.3 62.16 332.5Z" fill="#FAFAFA"/>
<path d="M48.74 349.31C48.46 349.31 47.87 346.81 47.44 343.63C47.01 340.45 46.89 337.84 47.17 337.8C47.45 337.76 48.04 340.31 48.47 343.49C48.9 346.67 49 349.27 48.74 349.31Z" fill="#FAFAFA"/>
<g opacity="0.5">
<path d="M61.38 353.89C61.13 353.75 62.38 351.07 64.25 347.89C66.12 344.71 67.77 342.28 68.02 342.42C68.27 342.56 67.02 345.25 65.15 348.42C63.28 351.59 61.63 354 61.38 353.89Z" fill="#FAFAFA"/>
</g>
<path d="M46.7 371.3C46.49 371.49 44.26 369.3 42.09 366.14C39.92 362.98 38.69 360.14 38.93 359.99C39.17 359.84 40.82 362.45 42.93 365.55C45.04 368.65 46.92 371.11 46.7 371.3Z" fill="#FAFAFA"/>
<path d="M66.65 368.43C66.85 368.63 64.55 371.28 61.52 374.34C58.49 377.4 55.86 379.73 55.65 379.53C55.44 379.33 57.74 376.68 60.78 373.61C63.82 370.54 66.44 368.23 66.65 368.43Z" fill="#FAFAFA"/>
<g opacity="0.5">
<path d="M55.31 404.36C55.12 404.56 52.9 402.72 50.88 399.82C48.86 396.92 47.88 394.22 48.12 394.11C48.36 394 49.77 396.43 51.74 399.22C53.71 402.01 55.52 404.15 55.31 404.36Z" fill="#FAFAFA"/>
</g>
<path d="M81.05 397.09C81.19 397.34 78.73 399.01 75.56 400.82C72.39 402.63 69.69 403.9 69.56 403.65C69.43 403.4 71.88 401.73 75.05 399.92C78.22 398.11 80.91 396.84 81.05 397.09Z" fill="#FAFAFA"/>
<path d="M91.08 388.81C90.9 389.02 88.57 387.24 86.45 384.33C84.33 381.42 83.34 378.66 83.6 378.56C83.86 378.46 85.24 380.92 87.29 383.72C89.34 386.52 91.29 388.59 91.08 388.81Z" fill="#FAFAFA"/>
<path d="M108.77 331.22C108.95 331.45 106.3 333.73 102.86 336.3C99.42 338.87 96.5 340.77 96.32 340.54C96.14 340.31 98.8 338.04 102.24 335.47C105.68 332.9 108.6 331 108.77 331.22Z" fill="#FAFAFA"/>
<path d="M90.13 330C89.84 330 89.89 327.23 90.23 323.88C90.57 320.53 91.08 317.88 91.37 317.88C91.66 317.88 91.61 320.65 91.27 324C90.93 327.35 90.41 330.05 90.13 330Z" fill="#FAFAFA"/>
<g opacity="0.5">
<path d="M107.32 306.59C107.16 306.82 104.06 304.91 100.66 302C97.26 299.09 94.88 296.34 95.08 296.15C95.28 295.96 97.97 298.34 101.34 301.21C104.71 304.08 107.49 306.35 107.32 306.59Z" fill="#FAFAFA"/>
</g>
<path d="M94.41 277.37C94.63 277.56 92.41 280.5 89.53 283.94C86.65 287.38 84.07 290.01 83.85 289.83C83.63 289.65 85.85 286.7 88.73 283.26C91.61 279.82 94.19 277.19 94.41 277.37Z" fill="#FAFAFA"/>
<g opacity="0.5">
<path d="M79.62 274.24C79.46 274.5 77.23 273.35 74.32 272.38C71.41 271.41 69 270.94 69 270.64C69 270.34 71.64 270.36 74.68 271.39C77.72 272.42 79.77 274 79.62 274.24Z" fill="#FAFAFA"/>
</g>
<path d="M117.21 287.71C116.94 287.63 117.41 285.2 118.27 282.28C119.13 279.36 120.05 277.06 120.27 277.14C120.49 277.22 120.08 279.65 119.27 282.57C118.46 285.49 117.49 287.8 117.21 287.71Z" fill="#FAFAFA"/>
<path d="M126.2 310.73C125.91 310.73 125.81 308.33 125.98 305.41C126.15 302.49 126.52 300.14 126.8 300.15C127.08 300.16 127.19 302.55 127.02 305.47C126.85 308.39 126.48 310.75 126.2 310.73Z" fill="#FAFAFA"/>
<path d="M141 328C140.82 328.23 138.63 326.77 136.11 324.74C133.59 322.71 131.69 320.89 131.87 320.67C132.05 320.45 134.24 321.9 136.76 323.93C139.28 325.96 141.15 327.78 141 328Z" fill="#FAFAFA"/>
<path d="M156.71 303.89C156.9 304.1 154.95 306.14 152.35 308.43C149.75 310.72 147.49 312.43 147.35 312.19C147.21 311.95 149.11 309.94 151.71 307.65C154.31 305.36 156.52 303.67 156.71 303.89Z" fill="#FAFAFA"/>
<g opacity="0.5">
<path d="M149.48 292.5C149.32 292.74 146.85 291.38 144.19 289.17C141.53 286.96 139.73 284.78 139.93 284.59C140.13 284.4 142.23 286.2 144.85 288.36C147.47 290.52 149.64 292.26 149.48 292.5Z" fill="#FAFAFA"/>
</g>
<path d="M167.66 272.2C167.89 272.36 166.66 274.43 164.54 276.43C162.42 278.43 160.27 279.53 160.12 279.29C159.97 279.05 161.77 277.61 163.82 275.68C165.87 273.75 167.42 272 167.66 272.2Z" fill="#FAFAFA"/>
<g opacity="0.5">
<path d="M155.16 270.3C155.16 270.58 151.93 270.35 148.16 269.38C144.39 268.41 141.43 267.11 141.53 266.84C141.63 266.57 144.66 267.43 148.42 268.37C152.18 269.31 155.2 270 155.16 270.3Z" fill="#FAFAFA"/>
</g>
<g opacity="0.5">
<path d="M178.38 302.62C178.11 302.56 178.73 298.62 180.16 294C181.59 289.38 183.24 285.76 183.5 285.86C183.76 285.96 182.56 289.69 181.16 294.3C179.76 298.91 178.67 302.68 178.38 302.62Z" fill="#FAFAFA"/>
</g>
<path d="M183.53 324.68C183.32 324.87 180.85 322.6 178.01 319.59C175.17 316.58 173.01 313.99 173.26 313.79C173.51 313.59 175.93 315.87 178.77 318.88C181.61 321.89 183.74 324.48 183.53 324.68Z" fill="#FAFAFA"/>
<g opacity="0.5">
<path d="M191.5 337.17C191.21 337.17 191.03 333.89 191.1 329.85C191.17 325.81 191.46 322.55 191.75 322.55C192.04 322.55 192.21 325.83 192.14 329.87C192.07 333.91 191.78 337.18 191.5 337.17Z" fill="#FAFAFA"/>
</g>
<path d="M183.41 357.75C183.18 357.91 181.04 355.29 179.06 351.63C177.08 347.97 176.06 344.74 176.31 344.63C176.56 344.52 178.02 347.53 179.98 351.12C181.94 354.71 183.65 357.58 183.41 357.75Z" fill="#FAFAFA"/>
<path d="M204.06 361.51C204.27 361.71 202.88 363.39 200.97 365.26C199.06 367.13 197.34 368.47 197.14 368.26C196.94 368.05 198.33 366.37 200.24 364.5C202.15 362.63 203.86 361.3 204.06 361.51Z" fill="#FAFAFA"/>
<g opacity="0.5">
<path d="M153.78 338.06C153.52 337.98 154.44 334.7 156.78 331.28C159.12 327.86 161.87 325.83 162.04 326.05C162.21 326.27 159.9 328.57 157.64 331.88C155.38 335.19 154.06 338.17 153.78 338.06Z" fill="#FAFAFA"/>
</g>
<path d="M95.47 365.49C95.19 365.42 95.68 362.49 96.56 358.85C97.44 355.21 98.4 352.38 98.68 352.45C98.96 352.52 98.46 355.5 97.58 359.1C96.7 362.7 95.74 365.56 95.47 365.49Z" fill="#FAFAFA"/>
<path d="M120 367.94C119.84 368.18 117.35 366.83 114.44 364.94C111.53 363.05 109.29 361.31 109.44 361.07C109.59 360.83 112.08 362.17 115 364.07C117.92 365.97 120.19 367.7 120 367.94Z" fill="#FAFAFA"/>
<path d="M118.8 350.22C118.56 350.38 117.39 349.05 116.18 347.22C114.97 345.39 114.18 343.83 114.43 343.67C114.68 343.51 115.84 344.84 117.05 346.67C118.26 348.5 119 350.06 118.8 350.22Z" fill="#FAFAFA"/>
<path d="M129.63 354.26C129.79 354.49 128.74 355.51 127.28 356.54C125.82 357.57 124.5 358.21 124.33 357.98C124.16 357.75 125.22 356.72 126.68 355.69C128.14 354.66 129.46 354 129.63 354.26Z" fill="#FAFAFA"/>
<g opacity="0.5">
<path d="M101.35 426.15C101.06 426.06 101.53 423.79 101.94 420.99C102.35 418.19 102.58 415.88 102.88 415.88C103.18 415.88 103.4 418.25 102.97 421.14C102.54 424.03 101.61 426.24 101.35 426.15Z" fill="#FAFAFA"/>
</g>
<g opacity="0.5">
<path d="M126.27 418C126.02 418.14 124.12 415.27 122.03 411.6C119.94 407.93 118.44 404.82 118.69 404.68C118.94 404.54 120.84 407.4 122.93 411.08C125.02 414.76 126.52 417.89 126.27 418Z" fill="#FAFAFA"/>
</g>
<g opacity="0.5">
<path d="M152.7 406.89C152.93 407.06 150.43 410.72 147.11 415.06C143.79 419.4 140.91 422.77 140.68 422.6C140.45 422.43 142.96 418.77 146.28 414.43C149.6 410.09 152.48 406.71 152.7 406.89Z" fill="#FAFAFA"/>
</g>
<g opacity="0.5">
<path d="M160.15 428.12C160.15 428.4 156.88 429.12 152.76 429.71C148.64 430.3 145.26 430.56 145.22 430.28C145.18 430 148.48 429.28 152.61 428.68C156.74 428.08 160.11 427.83 160.15 428.12Z" fill="#FAFAFA"/>
</g>
<path d="M161.3 417.42C161.01 417.35 161.3 415.22 161.37 412.6C161.44 409.98 161.37 407.83 161.72 407.79C162.07 407.75 162.54 409.91 162.41 412.64C162.28 415.37 161.57 417.49 161.3 417.42Z" fill="#FAFAFA"/>
<path d="M125.61 429.88C125.51 430.13 122.8 429.24 119.98 427.2C117.16 425.16 115.44 422.9 115.65 422.73C115.86 422.56 117.86 424.41 120.59 426.35C123.32 428.29 125.73 429.6 125.61 429.88Z" fill="#FAFAFA"/>
<path d="M83.2 428.3C82.92 428.23 83.2 425.94 83.94 423.2C84.68 420.46 85.42 418.28 85.7 418.35C85.98 418.42 85.64 420.7 84.95 423.45C84.26 426.2 83.48 428.37 83.2 428.3Z" fill="#FAFAFA"/>
<path d="M78.59 175.36C78.65 175.28 79.79 176.26 81.88 177.36C83.1081 178.022 84.3892 178.581 85.71 179.03C87.3383 179.556 89.0123 179.927 90.71 180.14C92.4078 180.321 94.119 180.337 95.82 180.19C97.2136 180.063 98.5926 179.808 99.94 179.43C102.24 178.79 103.56 178.1 103.61 178.19C103.329 178.402 103.023 178.58 102.7 178.72C102.338 178.914 101.964 179.084 101.58 179.23C101.077 179.444 100.563 179.63 100.04 179.79C98.6823 180.22 97.2855 180.514 95.87 180.67C94.1346 180.85 92.3853 180.85 90.65 180.67C88.92 180.456 87.2174 180.06 85.57 179.49C84.2279 179.017 82.9351 178.414 81.71 177.69C81.18 177.4 80.71 177.07 80.34 176.8C79.9901 176.569 79.656 176.315 79.34 176.04C78.84 175.64 78.56 175.39 78.59 175.36Z" fill="#455A64"/>
<path d="M104.42 186.87C104.07 187.02 103.704 187.131 103.33 187.2C102.62 187.38 101.59 187.62 100.33 187.84C96.9505 188.501 93.477 188.521 90.09 187.9C86.6749 187.24 83.5681 185.484 81.24 182.9C80.558 182.104 79.9924 181.215 79.56 180.26C79.3839 179.921 79.2624 179.557 79.2 179.18C79.8332 180.428 80.6119 181.596 81.52 182.66C83.8506 185.109 86.8831 186.776 90.2 187.43C93.5309 188.028 96.939 188.059 100.28 187.52C101.57 187.34 102.61 187.16 103.28 187.04C103.652 186.939 104.035 186.882 104.42 186.87V186.87Z" fill="#455A64"/>
<path d="M68.81 248.07C68.7623 248.028 68.7188 247.981 68.68 247.93C68.61 247.83 68.48 247.69 68.34 247.48C67.9524 246.869 67.6843 246.191 67.55 245.48C67.3494 244.157 67.4416 242.806 67.82 241.522C68.1984 240.238 68.8538 239.053 69.74 238.05C70.9588 236.677 72.3701 235.488 73.93 234.52C75.57 233.44 77.41 232.45 79.22 231.23C81.1375 230.017 82.7767 228.412 84.03 226.52C84.6564 225.516 85.0652 224.392 85.23 223.22C85.3857 222.005 85.3214 220.772 85.04 219.58C84.3835 217.219 83.5374 214.915 82.51 212.69C81.5371 210.566 80.9642 208.281 80.82 205.95C80.7011 201.978 81.9079 198.08 84.25 194.87C85.7716 192.693 87.7908 190.91 90.14 189.67L91.26 189.13L92.12 188.83C92.3532 188.738 92.5942 188.668 92.84 188.62C92.6224 188.742 92.3949 188.846 92.16 188.93L91.33 189.28L90.24 189.85C87.9686 191.136 86.0222 192.925 84.55 195.08C82.3102 198.244 81.1687 202.055 81.3 205.93C81.4528 208.201 82.0222 210.425 82.98 212.49C84.0275 214.749 84.887 217.09 85.55 219.49C85.8374 220.742 85.9017 222.035 85.74 223.31C85.5688 224.553 85.1359 225.746 84.47 226.81C83.1661 228.76 81.4616 230.41 79.47 231.65C77.63 232.87 75.78 233.85 74.15 234.91C72.6131 235.838 71.2186 236.983 70.01 238.31C69.1429 239.271 68.4909 240.406 68.0977 241.639C67.7045 242.872 67.5791 244.175 67.73 245.46C67.9118 246.393 68.2791 247.281 68.81 248.07V248.07Z" fill="#455A64"/>
<path d="M95.45 248.43C95.2445 248.343 95.0499 248.232 94.87 248.1C94.3494 247.726 93.9105 247.249 93.58 246.7C93.0649 245.821 92.7571 244.836 92.68 243.82C92.5738 242.471 92.7231 241.114 93.12 239.82C93.93 236.89 96.38 234.22 98.22 230.82C99.2221 229.088 99.7434 227.121 99.73 225.12C99.6279 222.974 99.0796 220.872 98.12 218.95C96.22 214.95 93.3 211.73 91.28 208.39C90.2876 206.828 89.4947 205.149 88.92 203.39C88.4358 201.832 88.2692 200.193 88.43 198.57C88.5849 196.194 89.6271 193.963 91.35 192.32C91.8321 191.911 92.3711 191.574 92.95 191.32C93.148 191.224 93.3559 191.15 93.57 191.1C92.8153 191.474 92.1127 191.944 91.48 192.5C89.8745 194.152 88.9223 196.33 88.8 198.63C88.6669 200.204 88.8505 201.788 89.34 203.29C89.9103 205.02 90.7001 206.67 91.69 208.2C92.69 209.83 93.93 211.46 95.16 213.2C96.4727 214.961 97.6208 216.839 98.59 218.81C99.59 220.798 100.153 222.977 100.24 225.2C100.243 227.282 99.6948 229.329 98.65 231.13C96.73 234.54 94.28 237.13 93.47 239.97C93.0728 241.213 92.9034 242.517 92.97 243.82C93.0248 244.799 93.2909 245.754 93.75 246.62C94.1828 247.336 94.7621 247.953 95.45 248.43V248.43Z" fill="#455A64"/>
<path d="M134.91 173.36C134.91 173.36 134.77 173.36 134.53 173.2C134.183 173.012 133.849 172.802 133.53 172.57C132.386 171.684 131.413 170.596 130.66 169.36C129.566 167.534 128.639 165.613 127.89 163.62C127.43 162.52 126.89 161.37 126.33 160.24C125.703 159.073 124.967 157.967 124.13 156.94C121.145 153.316 117.104 150.712 112.57 149.49C110.684 149.036 108.758 148.761 106.82 148.67C107.339 148.583 107.865 148.553 108.39 148.58C109.828 148.617 111.259 148.801 112.66 149.13C117.321 150.275 121.486 152.899 124.53 156.61C125.394 157.665 126.154 158.8 126.8 160C127.41 161.16 127.89 162.33 128.34 163.44C129.066 165.417 129.949 167.333 130.98 169.17C131.696 170.388 132.604 171.482 133.67 172.41C134.44 173.06 134.94 173.32 134.91 173.36Z" fill="#455A64"/>
<path d="M148.86 173.28C148.678 173.287 148.496 173.267 148.32 173.22C147.808 173.141 147.306 173.01 146.82 172.83C145.022 172.164 143.393 171.109 142.05 169.74C140.077 167.714 138.413 165.409 137.11 162.9C135.54 160.15 134.02 156.99 131.67 154.24C129.431 151.67 126.474 149.828 123.18 148.95C120.488 148.235 117.716 147.862 114.93 147.84C112.54 147.79 110.61 147.84 109.27 147.94L107.73 148C107.551 148.024 107.369 148.024 107.19 148C107.362 147.945 107.54 147.915 107.72 147.91L109.26 147.75C110.59 147.64 112.53 147.48 114.93 147.49C117.755 147.452 120.573 147.788 123.31 148.49C126.709 149.368 129.76 151.258 132.06 153.91C134.48 156.74 135.99 159.91 137.52 162.68C138.788 165.161 140.401 167.451 142.31 169.48C143.597 170.846 145.158 171.927 146.89 172.65C148.13 173.13 148.87 173.22 148.86 173.28Z" fill="#455A64"/>
<path d="M172.47 238.18C172.42 238.18 172.73 237.47 173.06 236.18C173.54 234.34 173.742 232.439 173.66 230.54C173.565 227.722 172.84 224.962 171.54 222.46C170.765 220.993 169.803 219.631 168.68 218.41C167.52 217.12 166.19 215.9 164.86 214.62C163.517 213.389 162.276 212.051 161.15 210.62C160.115 209.278 159.22 207.834 158.48 206.31C157.234 203.723 156.436 200.944 156.12 198.09C155.9 196.172 155.92 194.233 156.18 192.32C156.237 191.801 156.327 191.287 156.45 190.78C156.476 190.597 156.527 190.419 156.6 190.25C156.65 190.25 156.49 191 156.38 192.35C156.198 194.244 156.232 196.153 156.48 198.04C156.854 200.839 157.675 203.56 158.91 206.1C159.649 207.587 160.533 208.997 161.55 210.31C162.669 211.705 163.892 213.012 165.21 214.22C166.55 215.5 167.88 216.73 169.06 218.05C170.206 219.306 171.181 220.708 171.96 222.22C173.272 224.79 173.98 227.625 174.03 230.51C174.078 232.442 173.818 234.37 173.26 236.22C173.114 236.723 172.931 237.215 172.71 237.69C172.655 237.865 172.574 238.03 172.47 238.18Z" fill="#455A64"/>
<path d="M62.92 172.49C62.9176 172.152 62.9614 171.816 63.05 171.49C63.2522 170.621 63.5718 169.783 64 169C64.7148 167.671 65.7025 166.509 66.8982 165.589C68.094 164.669 69.4709 164.012 70.9384 163.662C72.4059 163.311 73.9309 163.275 75.4133 163.556C76.8958 163.837 78.3021 164.427 79.54 165.29C80.2891 165.788 80.9627 166.39 81.54 167.08C81.7709 167.32 81.9602 167.597 82.1 167.9C81.2544 167.044 80.3266 166.274 79.33 165.6C78.1204 164.813 76.7633 164.281 75.3412 164.035C73.9192 163.79 72.4621 163.836 71.0586 164.172C69.6552 164.508 68.3349 165.126 67.1781 165.989C66.0213 166.851 65.0522 167.941 64.33 169.19C63.7546 170.242 63.2824 171.347 62.92 172.49Z" fill="#455A64"/>
<path d="M72.61 176.7C72.6029 175.934 72.6971 175.171 72.89 174.43C73.1976 172.575 74.0186 170.843 75.26 169.43C75.9401 168.749 76.792 168.265 77.7251 168.029C78.6583 167.793 79.6379 167.814 80.56 168.09C81.1141 168.291 81.6044 168.636 81.98 169.09C82.23 169.41 82.3 169.63 82.28 169.64C81.7704 169.112 81.1435 168.711 80.45 168.47C79.5973 168.267 78.7068 168.285 77.8631 168.523C77.0195 168.761 76.2508 169.211 75.63 169.83C74.4589 171.186 73.6413 172.811 73.25 174.56C73.1023 175.291 72.8881 176.008 72.61 176.7V176.7Z" fill="#455A64"/>
<path d="M85.32 162.05C84.3172 163.803 83.4383 165.624 82.69 167.5C82.1116 169.432 81.6573 171.4 81.33 173.39C81.1089 169.229 82.5475 165.151 85.33 162.05H85.32Z" fill="#5579D9"/>
<path d="M245.3 186.43C245.3 187.045 245.482 187.646 245.824 188.158C246.166 188.669 246.652 189.068 247.22 189.303C247.788 189.539 248.413 189.6 249.017 189.48C249.62 189.36 250.174 189.064 250.609 188.629C251.044 188.194 251.34 187.64 251.46 187.037C251.58 186.434 251.519 185.808 251.283 185.24C251.048 184.672 250.649 184.186 250.138 183.844C249.626 183.502 249.025 183.32 248.41 183.32C248.002 183.32 247.597 183.401 247.22 183.557C246.843 183.713 246.5 183.942 246.211 184.231C245.922 184.52 245.693 184.863 245.537 185.24C245.38 185.617 245.3 186.022 245.3 186.43V186.43Z" fill="#455A64"/>
<path d="M235.95 189.54C237.668 189.54 239.06 188.148 239.06 186.43C239.06 184.712 237.668 183.32 235.95 183.32C234.232 183.32 232.84 184.712 232.84 186.43C232.84 188.148 234.232 189.54 235.95 189.54Z" fill="#455A64"/>
<path d="M220.42 184.87C220.113 185.403 219.971 186.015 220.011 186.628C220.052 187.242 220.273 187.83 220.648 188.318C221.023 188.805 221.534 189.171 222.116 189.368C222.698 189.566 223.326 189.586 223.92 189.427C224.514 189.268 225.048 188.936 225.453 188.473C225.858 188.011 226.118 187.439 226.198 186.829C226.278 186.219 226.176 185.599 225.904 185.048C225.632 184.496 225.203 184.038 224.67 183.73C224.316 183.526 223.925 183.393 223.52 183.34C223.115 183.286 222.703 183.313 222.309 183.419C221.914 183.525 221.544 183.708 221.22 183.957C220.896 184.206 220.624 184.516 220.42 184.87V184.87Z" fill="#455A64"/>
<path d="M235.76 150.08C235.551 150.056 235.339 150.056 235.13 150.08L233.28 150.13C232.88 150.13 232.42 150.13 231.92 150.19L230.29 150.42L228.39 150.69L226.26 151.22C222.619 152.145 219.153 153.658 216 155.7C211.313 158.683 207.371 162.698 204.475 167.438C201.578 172.179 199.805 177.519 199.29 183.05C199.145 184.713 199.112 186.383 199.19 188.05C199.25 188.9 199.19 189.75 199.35 190.6L199.74 193.17C200.392 196.704 201.558 200.124 203.2 203.32C204.962 206.659 207.194 209.727 209.83 212.43C212.64 215.196 215.861 217.511 219.38 219.29C223.014 221.148 226.948 222.349 231 222.84C232.03 222.995 233.069 223.085 234.11 223.11C235.153 223.165 236.197 223.165 237.24 223.11C239.355 223.026 241.46 222.761 243.53 222.32C247.973 221.369 252.201 219.603 256 217.11H255.62L268.36 222.23L269.12 222.53L268.9 221.75C267.62 217.07 266.36 212.52 265.16 208.12L265.09 208.46C268.551 203.878 270.881 198.543 271.89 192.89C272.379 190.253 272.547 187.567 272.39 184.89C272.364 183.606 272.24 182.325 272.02 181.06C271.93 180.43 271.83 179.81 271.74 179.19C271.65 178.57 271.43 177.99 271.29 177.39C269.157 169.013 264.118 161.666 257.07 156.66C254.469 154.791 251.622 153.29 248.61 152.2L246.71 151.52L244.9 151.06L243.24 150.65C242.71 150.54 242.24 150.49 241.72 150.42C240.72 150.29 239.91 150.13 239.17 150.09L237.29 150.03H236.15C235.89 150.03 235.76 150.03 235.76 150.03H236.15L237.29 150.12L239.15 150.24C239.88 150.3 240.72 150.49 241.68 150.63C248.598 151.821 255.021 154.995 260.169 159.766C265.317 164.538 268.969 170.702 270.68 177.51C270.82 178.1 271 178.68 271.11 179.28C271.22 179.88 271.29 180.5 271.39 181.11C271.591 182.357 271.702 183.617 271.72 184.88C271.866 187.494 271.695 190.117 271.21 192.69C270.197 198.252 267.888 203.497 264.47 208L264.36 208.15L264.41 208.34C265.61 212.74 266.847 217.283 268.12 221.97L268.66 221.49L255.93 216.36L255.73 216.28L255.54 216.4C251.817 218.856 247.67 220.599 243.31 221.54C241.289 221.973 239.235 222.234 237.17 222.32C236.146 222.36 235.121 222.34 234.1 222.26C233.096 222.24 232.094 222.157 231.1 222.01C227.133 221.523 223.281 220.345 219.72 218.53C212.9 215.156 207.342 209.685 203.86 202.92C202.228 199.8 201.062 196.458 200.4 193C200.27 192.15 200.14 191.32 200.02 190.48C199.9 189.64 199.91 188.81 199.84 187.98C199.761 186.35 199.788 184.717 199.92 183.09C200.407 177.649 202.126 172.391 204.947 167.713C207.768 163.035 211.616 159.06 216.2 156.09C219.312 154.031 222.736 152.488 226.34 151.52L228.44 150.96L230.33 150.65L231.94 150.38C232.44 150.38 232.89 150.32 233.29 150.28L235.13 150.15C235.342 150.144 235.552 150.121 235.76 150.08V150.08Z" fill="#455A64"/>
</svg>
