<?xml version="1.0" encoding="UTF-8"?><svg id="Layer_1" xmlns="http://www.w3.org/2000/svg" viewBox="0 0 600 600"><defs><style>.cls-1{fill:#e9674d;}.cls-2{fill:#1a255a;}</style></defs><g><g><path className="cls-1" d="M190.07,88.64h-28.41c-17.23,0-26.14,13.98-26.15,31.21v26.59h80.7s0-26.59,0-26.59c0-17.23-8.91-31.2-26.15-31.21Z"/><polygon className="cls-2" points="135.52 395.51 175.87 440.92 216.22 395.5 216.22 171.21 135.52 171.21 135.52 395.51"/></g><g><path className="cls-2" d="M467.33,158.19c0,36.84-14.96,75.78-38.57,97.87H222.48c23.62-22.09,38.58-61.03,38.58-97.87V90.84h206.27v67.35Z"/><path className="cls-2" d="M467.33,371.37v67.35h-206.27v-67.35c0-36.84-14.96-75.78-38.58-97.87h206.28c23.61,22.09,38.57,61.03,38.57,97.87Z"/></g></g><g><path className="cls-1" d="M146.78,489.24l19.77,20.89h-11.7l-13.78-14.67v14.67h-8.4v-39.48h8.4v12.49l11.98-12.49h11.54l-17.81,18.59Z"/><path className="cls-2" d="M178.08,486.61c0-9.3,6.78-16.8,15.12-16.8s15.12,7.5,15.12,16.8v23.52h-8.4v-8.4h-13.44v8.4h-8.4v-23.52Zm8.4,6.72h13.44v-6.72c0-4.65-3.02-8.4-6.72-8.4s-6.72,3.75-6.72,8.4v6.72Z"/><path className="cls-2" d="M233.52,479.78v30.35h-8.4v-39.48h12.71l15.85,29.29v-29.29h8.4v39.48h-12.1l-16.46-30.35Z"/><path className="cls-2" d="M284.48,499.6c.17,1.96,1.74,3.36,3.75,3.36,2.13,0,3.81-1.62,3.81-3.75v-28.56h8.4v28.56c0,6.72-5.49,12.15-12.21,12.15-5.88,0-10.81-4.2-11.93-9.74l8.18-2.02Z"/><path className="cls-2" d="M317.8,470.65h8.4v39.48h-8.4v-39.48Z"/><path className="cls-2" d="M397.77,508.95c-2.69,1.29-5.71,2.02-8.9,2.02-11.37,0-20.55-9.18-20.55-20.55s9.18-20.61,20.55-20.61c5.77,0,10.98,2.41,14.73,6.22l-5.6,6.38c-2.24-2.58-5.54-4.2-9.18-4.2-6.72,0-12.15,5.49-12.15,12.21s5.43,12.15,12.15,12.15c3.47,0,6.66-1.46,8.9-3.81v-3.75h-7.56v-8.4h15.96v21.5h-6.72l-1.62,.84Z"/><path className="cls-2" d="M441.96,469.81c11.37,0,20.61,9.24,20.61,20.61s-9.24,20.55-20.61,20.55-20.55-9.18-20.55-20.55,9.18-20.61,20.55-20.61Zm-.06,32.76c6.72,0,12.21-5.43,12.21-12.15s-5.49-12.21-12.21-12.21-12.15,5.49-12.15,12.21,5.43,12.15,12.15,12.15Z"/></g></svg>