<svg width="55" height="70" viewBox="0 0 55 70" fill="none" xmlns="http://www.w3.org/2000/svg">
<path d="M9.43346 0H4.7644C1.93272 0 0.468395 2.29756 0.466751 5.12924V9.49919H13.7295V5.12924C13.7295 2.29756 12.2651 0.00164346 9.43182 0H9.43346Z" fill="white"/>
<path d="M0.468399 50.4328L7.09975 57.8958L13.7311 50.4312V13.57H0.468399V50.4328Z" fill="white"/>
<path d="M55 11.4303C55 17.4848 52.5414 23.8844 48.6612 27.5148H14.7599C18.6418 23.8844 21.1004 17.4848 21.1004 11.4303V0.361572H55V11.4303V11.4303Z" fill="white"/>
<path d="M55 46.4655V57.5342H21.1004V46.4655C21.1004 40.411 18.6418 34.0114 14.7599 30.381H48.6612C52.5414 34.0114 55 40.411 55 46.4655Z" fill="white"/>
<path d="M2.31892 65.837L5.56804 69.2701H3.64519L1.38051 66.8592V69.2701H0V62.7818H1.38051V64.8345L3.34937 62.7818H5.24592L2.31892 65.837V65.837Z" fill="white"/>
<path d="M7.46295 65.4047C7.46295 63.8763 8.57722 62.6437 9.94786 62.6437C11.3185 62.6437 12.4328 63.8763 12.4328 65.4047V69.2701H11.0523V67.8896H8.84346V69.2701H7.46295V65.4047ZM8.84346 66.5091H11.0523V65.4047C11.0523 64.6405 10.5559 64.0242 9.94786 64.0242C9.33978 64.0242 8.84346 64.6405 8.84346 65.4047V66.5091Z" fill="white"/>
<path d="M16.5743 64.2822V69.2701H15.1938V62.7818H17.2826L19.8875 67.5955V62.7818H21.268V69.2701H19.2794L16.5743 64.2822V64.2822Z" fill="white"/>
<path d="M24.9493 67.5396C24.9773 67.8617 25.2353 68.0918 25.5656 68.0918C25.9157 68.0918 26.1918 67.8255 26.1918 67.4755V62.7818H27.5723V67.4755C27.5723 68.5799 26.6701 69.4723 25.5656 69.4723C24.5993 69.4723 23.7891 68.782 23.605 67.8716L24.9493 67.5396Z" fill="white"/>
<path d="M30.4254 62.7818H31.8059V69.2701H30.4254V62.7818Z" fill="white"/>
<path d="M43.5681 69.0762C43.126 69.2882 42.6297 69.4082 42.1054 69.4082C40.2368 69.4082 38.7281 67.8995 38.7281 66.0309C38.7281 64.1623 40.2368 62.6437 42.1054 62.6437C43.0537 62.6437 43.9099 63.0398 44.5262 63.6659L43.6059 64.7145C43.2378 64.2905 42.6954 64.0242 42.0972 64.0242C40.9928 64.0242 40.1004 64.9265 40.1004 66.0309C40.1004 67.1353 40.9928 68.0277 42.0972 68.0277C42.6675 68.0277 43.1918 67.7877 43.5599 67.4015V66.7852H42.3174V65.4047H44.9404V68.9382H43.836L43.5697 69.0762H43.5681Z" fill="white"/>
<path d="M50.8305 62.6437C52.6991 62.6437 54.2177 64.1623 54.2177 66.0309C54.2177 67.8995 52.6991 69.4082 50.8305 69.4082C48.9619 69.4082 47.4532 67.8995 47.4532 66.0309C47.4532 64.1623 48.9619 62.6437 50.8305 62.6437ZM50.8207 68.0277C51.9251 68.0277 52.8273 67.1353 52.8273 66.0309C52.8273 64.9265 51.9251 64.0242 50.8207 64.0242C49.7163 64.0242 48.8239 64.9265 48.8239 66.0309C48.8239 67.1353 49.7163 68.0277 50.8207 68.0277Z" fill="white"/>
</svg>
