<svg width="114" height="24" viewBox="0 0 114 24" fill="none" xmlns="http://www.w3.org/2000/svg">
<path d="M3.77339 0H1.90577C0.773093 0 0.187364 0.919022 0.186707 2.05169V3.79968H5.49179V2.05169C5.49179 0.919022 4.90606 0.000657384 3.77273 0H3.77339Z" fill="#E9674D"/>
<path d="M0.187363 20.1731L2.8399 23.1583L5.49245 20.1725V5.42801H0.187363V20.1731Z" fill="#1A255A"/>
<path d="M22 4.5721C22 6.9939 21.0166 9.55375 19.4645 11.0059H5.90396C7.4567 9.55375 8.44015 6.9939 8.44015 4.5721V0.144623H22V4.5721Z" fill="#1A255A"/>
<path d="M22 18.5862V23.0137H8.44015V18.5862C8.44015 16.1644 7.4567 13.6045 5.90396 12.1524H19.4645C21.0166 13.6045 22 16.1644 22 18.5862Z" fill="#1A255A"/>
<path d="M31.6783 11.0652L36.832 16.5109H33.782L30.1898 12.6867V16.5109H28V6.21906H30.1898V9.47502L33.3128 6.21906H36.3211L31.6783 11.0652Z" fill="#E9674D"/>
<path d="M39.8377 10.3795C39.8377 7.95513 41.6051 6 43.7792 6C45.9533 6 47.7208 7.95513 47.7208 10.3795V16.5108H45.531V14.3211H42.0274V16.5108H39.8377V10.3795ZM42.0274 12.1313H45.531V10.3795C45.531 9.16732 44.7438 8.18975 43.7792 8.18975C42.8147 8.18975 42.0274 9.16732 42.0274 10.3795V12.1313Z" fill="#1A255A"/>
<path d="M54.2901 8.59911V16.5109H52.1003V6.21906H55.4137L59.5455 13.8545V6.21906H61.7353V16.5109H58.581L54.2901 8.59911Z" fill="#1A255A"/>
<path d="M67.5745 13.7659C67.6189 14.2768 68.0281 14.6418 68.5521 14.6418C69.1074 14.6418 69.5453 14.2195 69.5453 13.6642V6.21906H71.7351V13.6642C71.7351 15.416 70.3039 16.8315 68.5521 16.8315C67.0193 16.8315 65.7341 15.7367 65.4421 14.2925L67.5745 13.7659Z" fill="#1A255A"/>
<path d="M76.2606 6.21906H78.4504V16.5109H76.2606V6.21906Z" fill="#1A255A"/>
<path d="M97.1076 16.2032C96.4063 16.5395 95.6191 16.7298 94.7875 16.7298C91.8235 16.7298 89.4304 14.3367 89.4304 11.3727C89.4304 8.40873 91.8235 6 94.7875 6C96.2916 6 97.6498 6.62825 98.6274 7.62146L97.1675 9.28463C96.5836 8.61207 95.7234 8.18975 94.7745 8.18975C93.0227 8.18975 91.6071 9.62092 91.6071 11.3727C91.6071 13.1245 93.0227 14.54 94.7745 14.54C95.679 14.54 96.5106 14.1594 97.0946 13.5468V12.5693H95.1238V10.3795H99.2843V15.9842H97.5325L97.1102 16.2032H97.1076Z" fill="#1A255A"/>
<path d="M108.627 6C111.591 6 114 8.40873 114 11.3727C114 14.3367 111.591 16.7298 108.627 16.7298C105.663 16.7298 103.27 14.3367 103.27 11.3727C103.27 8.40873 105.663 6 108.627 6ZM108.612 14.54C110.363 14.54 111.795 13.1245 111.795 11.3727C111.795 9.62092 110.363 8.18975 108.612 8.18975C106.86 8.18975 105.444 9.62092 105.444 11.3727C105.444 13.1245 106.86 14.54 108.612 14.54Z" fill="#1A255A"/>
</svg>
