<svg width="532" height="532" viewBox="0 0 532 532" fill="none" xmlns="http://www.w3.org/2000/svg">
<g clip-path="url(#clip0_29_467)">
<circle cx="266" cy="267" r="266" fill="white"/>
<path d="M270.76 347.281C318.449 347.281 357.109 308.621 357.109 260.932C357.109 213.243 318.449 174.583 270.76 174.583C223.071 174.583 184.411 213.243 184.411 260.932C184.411 308.621 223.071 347.281 270.76 347.281Z" fill="#FFB6B6"/>
<path d="M221.19 360.05L217.289 320.616L295.19 306.05L341.19 418.05L261.19 510.05L204.19 398.05L221.19 360.05Z" fill="#FFB6B6"/>
<path d="M441.48 463.24C392.48 507.68 329.61 532 263 532C201.59 532 143.36 511.33 96.2501 473.28C96.2201 473.26 96.2001 473.24 96.1701 473.21C92.9201 470.59 89.7201 467.88 86.5801 465.08C86.7601 464.28 86.9501 463.49 87.1401 462.72C94.8901 430.64 104.35 423.28 104.35 423.28L151.55 395.95L219.19 362.05H221.19C221.19 362.05 216.12 376.71 231.74 392.09C238.94 399.18 250.07 405.34 267.2 408.2C289.54 411.92 301.15 403.39 307.08 392.05C314.04 378.76 317.19 364.62 316.66 358.88C316.54 357.62 316.44 356.91 316.44 356.91C316.44 356.91 320.71 359.42 333.48 367.4C344.7 374.41 359.39 383.31 375 392.05C377.08 393.22 379.17 394.38 381.28 395.53C391.49 401.12 401.95 406.53 411.96 411.21C426.78 418.13 435.68 437.67 440.95 460.83C441.13 461.63 441.31 462.43 441.48 463.24V463.24Z" fill="#E9674D"/>
<path d="M454.09 77.91C403.85 27.67 337.05 0 266 0C194.95 0 128.15 27.67 77.91 77.91C27.67 128.15 0 194.95 0 266C0 330.85 23.05 392.16 65.29 440.57C69.32 445.2 73.53 449.71 77.91 454.09C78.94 455.12 79.98 456.15 81.03 457.15C83.83 459.86 86.68 462.51 89.58 465.08C91.34 466.65 93.12 468.19 94.92 469.7C96.33 470.89 97.74 472.06 99.17 473.21C99.2 473.24 99.2201 473.26 99.25 473.28C146.36 511.33 204.59 532 266 532C332.61 532 395.48 507.68 444.48 463.24C447.75 460.28 450.95 457.23 454.09 454.09C455.08 453.1 456.07 452.1 457.04 451.09C459.74 448.31 462.36 445.48 464.92 442.61C508.29 393.89 532 331.77 532 266C532 194.95 504.33 128.15 454.09 77.91ZM464.27 440.12C461.77 442.96 459.21 445.76 456.59 448.49C452.51 452.74 448.3 456.86 443.95 460.83C442.3 462.35 440.63 463.83 438.94 465.3C421.87 480.15 402.87 492.83 382.38 502.93C375.19 506.48 367.82 509.71 360.28 512.6C330.99 523.84 299.2 530 266 530C233.96 530 203.24 524.26 174.81 513.76C163.14 509.46 151.86 504.35 141.03 498.5C139.44 497.64 137.86 496.77 136.29 495.88C128.03 491.2 120.04 486.09 112.37 480.57C106.64 476.46 101.08 472.13 95.71 467.57C93.83 465.98 91.97 464.37 90.14 462.72C87.16 460.07 84.24 457.34 81.39 454.54C75.99 449.25 70.83 443.74 65.9 438.01C26.09 391.77 2 331.65 2 266C2 120.43 120.43 2 266 2C411.57 2 530 120.43 530 266C530 332.66 505.17 393.62 464.27 440.12Z" fill="#3F3D56"/>
<path d="M216.037 340.355L233.069 344.203C233.069 344.203 219.68 301.749 224.225 297.696C228.769 293.643 239.905 300.029 239.905 300.029L251.607 313.149L265.861 298.636C265.861 298.636 281.336 279.394 287.395 273.99C293.454 268.586 283.721 248.527 283.721 248.527C283.721 248.527 373.613 224.287 340.164 180.687C340.164 180.687 320.553 146.502 314.167 157.638C307.781 168.774 300.165 151.088 300.165 151.088L276.912 155.51C276.912 155.51 231.017 128.45 187.458 186.34C143.899 244.23 216.037 340.355 216.037 340.355V340.355Z" fill="#2F2E41"/>
</g>
<defs>
<clipPath id="clip0_29_467">
<rect width="532" height="532" fill="white"/>
</clipPath>
</defs>
</svg>
