<svg width="532" height="532" viewBox="0 0 532 532" fill="none" xmlns="http://www.w3.org/2000/svg">
<g clip-path="url(#clip0_29_473)">
<path d="M454.09 77.91C403.85 27.67 337.05 0 266 0C194.95 0 128.15 27.67 77.91 77.91C27.67 128.15 0 194.95 0 266C0 330.85 23.05 392.16 65.29 440.57C69.32 445.2 73.53 449.71 77.91 454.09C78.94 455.12 79.98 456.15 81.03 457.15C83.83 459.86 86.68 462.51 89.58 465.08C91.34 466.65 93.12 468.19 94.92 469.7C96.33 470.89 97.74 472.06 99.17 473.21C99.2 473.24 99.2201 473.26 99.25 473.28C146.36 511.33 204.59 532 266 532C332.61 532 395.48 507.68 444.48 463.24C447.75 460.28 450.95 457.23 454.09 454.09C455.08 453.1 456.07 452.1 457.04 451.09C459.74 448.31 462.36 445.48 464.92 442.61C508.29 393.89 532 331.77 532 266C532 194.95 504.33 128.15 454.09 77.91ZM464.27 440.12C461.77 442.96 459.21 445.76 456.59 448.49C452.51 452.74 448.3 456.86 443.95 460.83C442.3 462.35 440.63 463.83 438.94 465.3C421.87 480.15 402.87 492.83 382.38 502.93C375.19 506.48 367.82 509.71 360.28 512.6C330.99 523.84 299.2 530 266 530C233.96 530 203.24 524.26 174.81 513.76C163.14 509.46 151.86 504.35 141.03 498.5C139.44 497.64 137.86 496.77 136.29 495.88C128.03 491.2 120.04 486.09 112.37 480.57C106.64 476.46 101.08 472.13 95.71 467.57C93.83 465.98 91.97 464.37 90.14 462.72C87.16 460.07 84.24 457.34 81.39 454.54C75.99 449.25 70.83 443.74 65.9 438.01C26.09 391.77 2 331.65 2 266C2 120.43 120.43 2 266 2C411.57 2 530 120.43 530 266C530 332.66 505.17 393.62 464.27 440.12Z" fill="white"/>
<path d="M532 267C532 413.908 412.908 533 266 533C119.092 533 0 413.908 0 267C0 120.092 119.092 1 266 1C412.908 1 532 120.092 532 267Z" fill="white"/>
<path d="M454.09 77.91C403.85 27.67 337.05 0 266 0C194.95 0 128.15 27.67 77.91 77.91C27.67 128.15 0 194.95 0 266C0 330.85 23.05 392.16 65.29 440.57C69.32 445.2 73.53 449.71 77.91 454.09C84.7 460.88 91.8 467.27 99.17 473.21C99.2 473.24 99.22 473.26 99.25 473.28C146.36 511.33 204.59 532 266 532C337.05 532 403.85 504.33 454.09 454.09C504.33 403.85 532 337.05 532 266C532 194.95 504.33 128.15 454.09 77.91ZM438.94 465.3C421.87 480.15 402.87 492.83 382.38 502.93C375.19 506.48 367.82 509.71 360.28 512.6C330.99 523.84 299.2 530 266 530C233.96 530 203.24 524.26 174.81 513.76C163.14 509.46 151.86 504.35 141.03 498.5C139.44 497.64 137.86 496.77 136.29 495.88C128.03 491.2 120.04 486.09 112.37 480.57C95.23 468.27 79.62 453.97 65.9 438.01C26.09 391.77 2 331.65 2 266C2 120.43 120.43 2 266 2C411.57 2 530 120.43 530 266C530 345.48 494.7 416.87 438.94 465.3Z" fill="#3F3D56"/>
<path d="M379.19 379.05H246.19V199.05L361.19 262.05L379.19 379.05Z" fill="#2F2E41"/>
<path d="M270.76 347.281C318.449 347.281 357.109 308.621 357.109 260.932C357.109 213.243 318.449 174.583 270.76 174.583C223.071 174.583 184.411 213.243 184.411 260.932C184.411 308.621 223.071 347.281 270.76 347.281Z" fill="#FFB6B6"/>
<path d="M221.19 360.05L217.289 320.616L295.19 306.05L341.19 418.05L261.19 510.05L204.19 398.05L221.19 360.05Z" fill="#FFB6B6"/>
<path d="M457.04 451.09C456.07 452.1 455.08 453.1 454.09 454.09C450.95 457.23 447.75 460.28 444.48 463.24C395.48 507.68 332.61 532 266 532C204.59 532 146.36 511.33 99.2499 473.28C99.22 473.26 99.2 473.24 99.1699 473.21C97.7399 472.06 96.33 470.89 94.9199 469.7C95.1699 468.98 95.4399 468.27 95.71 467.57C110.86 428.1 140.78 408.79 158.94 400.34C167.94 396.15 174.05 394.62 174.05 394.62L195.37 356.22L210.38 384.22L221.44 404.86L266.82 489.53L305.97 392.05L318.1 361.83L321.21 354.09L336 365.6L350 376.49L378.19 382.71L401.06 387.76L432.12 394.62C444.68 404.85 452.32 424.31 456.59 448.49C456.75 449.35 456.9 450.22 457.04 451.09V451.09Z" fill="#E9674D"/>
<path d="M225.339 162.803C235.858 145.135 255.175 133.013 275.659 131.226C296.143 129.439 317.268 138.034 330.686 153.614C338.682 162.899 343.925 174.269 351.719 183.723C368.491 204.069 397.091 215.965 404.418 241.294C407.615 252.347 406.022 264.147 404.404 275.539C403.018 285.303 401.631 295.067 400.244 304.831C399.165 312.43 398.131 320.441 400.98 327.567C404.323 335.928 412.322 341.404 417.494 348.775C426.295 361.316 425.652 379.678 415.995 391.573C411.807 396.731 406.254 400.622 401.864 405.609C397.473 410.596 394.216 417.414 396.055 423.799C399.578 436.031 418.76 438.964 420.863 451.517C421.939 457.935 417.506 464.345 411.698 467.28C405.889 470.215 399.052 470.3 392.592 469.515C368.038 466.53 345.305 451.188 333.35 429.535C321.396 407.882 320.525 380.469 331.082 358.101C339.752 339.73 355.867 323.496 355.691 303.182C355.596 292.115 350.52 281.778 345.556 271.887C335.397 251.641 325.238 231.395 315.078 211.149C309.636 200.305 303.321 188.618 292.117 183.959C283.458 180.358 273.634 181.755 264.373 183.227C255.112 184.7 245.301 186.134 236.617 182.596C227.932 179.058 221.37 168.546 225.508 160.131" fill="#2F2E41"/>
<path d="M240.471 163.726C223.789 158.234 205.074 167.05 193.78 180.5C182.486 193.95 177.007 211.206 171.788 227.976C168.799 237.582 165.809 247.188 162.82 256.794C160.007 265.83 157.195 274.866 154.383 283.902C151.075 294.531 147.74 305.823 150.455 316.618C152.417 324.423 157.467 331.509 157.576 339.556C157.69 347.962 152.426 355.341 147.812 362.369C143.199 369.396 138.869 377.746 141.067 385.86C144.41 398.202 161.569 404.986 160.628 417.737C160.314 421.993 157.853 425.929 157.898 430.196C157.955 435.626 162.205 440.317 167.185 442.48C172.165 444.643 177.767 444.76 183.196 444.665C199.847 444.372 216.468 442.395 232.724 438.772C238.978 437.379 245.337 435.67 250.543 431.934C255.749 428.199 259.633 422.01 258.955 415.638C257.899 405.71 247.224 400.077 241.837 391.67C236.546 383.413 236.669 372.951 234.387 363.412C231.251 350.304 223.507 338.86 217.693 326.7C195.836 280.984 203.487 222.713 236.405 184.189C239.316 180.783 242.495 177.356 243.71 173.044C244.924 168.731 243.359 163.236 239.14 161.728" fill="#2F2E41"/>
</g>
<defs>
<clipPath id="clip0_29_473">
<rect width="532" height="532" fill="white"/>
</clipPath>
</defs>
</svg>
